<svg id="Layer_1" enable-background="new 0 0 479.936 479.936" height="512" viewBox="0 0 479.936 479.936" width="512" xmlns="http://www.w3.org/2000/svg"><path d="m466.648 225.778c7.06 8.09 7.06 20.29 0 28.38-10.59 12.14-16.68 27.86-16.68 44.46v99.35c0 20.99-17.01 38-38 38h-344c-20.99 0-38-17.01-38-38v-99.35c0-16.6-6.09-32.32-16.68-44.46-7.06-8.09-7.06-20.29 0-28.38 10.59-12.14 16.68-27.86 16.68-44.46v-99.35c0-20.99 17.01-38 38-38h344c20.99 0 38 17.01 38 38v99.35c0 16.6 6.09 32.32 16.68 44.46z" fill="#e8f3ff"/><circle cx="360.968" cy="353.968" fill="#a2d0ff" r="40"/><path d="m341.459 370.258c1.303 8.255-9.66 12.324-14.175 5.292-16.164-25.173.285-58.948 30.271-61.44 9.236-.767 11.939 10.692 4.808 14.451-15.189 8.005-23.599 24.623-20.904 41.697z" fill="#b9dcff"/><circle cx="239.968" cy="350.968" fill="#b9dcff" r="24"/><path d="m221.117 365.819c-11.976-15.218-1.866-37.233 16.828-38.768 7.644-.628 10.84 8.591 5.347 12.897-6.322 4.956-9.849 12.957-9.262 20.96.514 7.002-8.572 10.427-12.913 4.911z" fill="#d1e7ff"/><circle cx="115.968" cy="353.968" fill="#b9dcff" r="24"/><path d="m97.117 368.819c-11.976-15.218-1.866-37.233 16.828-38.768 7.644-.628 10.84 8.591 5.347 12.897-6.322 4.956-9.849 12.957-9.262 20.96.514 7.002-8.572 10.427-12.913 4.911z" fill="#d1e7ff"/><circle cx="239.968" cy="239.968" fill="#b9dcff" r="24"/><path d="m221.117 254.819c-11.976-15.218-1.866-37.233 16.828-38.768 7.644-.628 10.84 8.592 5.347 12.897-6.322 4.956-9.849 12.957-9.262 20.96.514 7.002-8.572 10.427-12.913 4.911z" fill="#d1e7ff"/><circle cx="115.968" cy="239.968" fill="#b9dcff" r="24"/><path d="m97.117 254.819c-11.976-15.218-1.866-37.233 16.828-38.768 7.644-.628 10.84 8.592 5.347 12.897-6.322 4.956-9.849 12.957-9.262 20.96.514 7.002-8.572 10.427-12.913 4.911z" fill="#d1e7ff"/><circle cx="360.968" cy="239.968" fill="#b9dcff" r="24"/><path d="m342.117 254.819c-11.976-15.218-1.866-37.233 16.828-38.768 7.644-.628 10.84 8.592 5.347 12.897-6.322 4.956-9.849 12.957-9.262 20.96.514 7.002-8.572 10.427-12.913 4.911z" fill="#d1e7ff"/><circle cx="360.968" cy="128.968" fill="#b9dcff" r="24"/><path d="m342.117 143.819c-11.976-15.218-1.866-37.233 16.828-38.768 7.644-.628 10.84 8.592 5.347 12.897-6.322 4.956-9.849 12.957-9.262 20.96.514 7.002-8.572 10.427-12.913 4.911z" fill="#d1e7ff"/><circle cx="239.968" cy="128.968" fill="#b9dcff" r="24"/><path d="m221.117 143.819c-11.976-15.218-1.866-37.233 16.828-38.768 7.644-.628 10.84 8.592 5.347 12.897-6.322 4.956-9.849 12.957-9.262 20.96.514 7.002-8.572 10.427-12.913 4.911z" fill="#d1e7ff"/><circle cx="115.968" cy="128.968" fill="#a2d0ff" r="40"/><path d="m96.459 145.258c1.303 8.255-9.66 12.324-14.175 5.292-16.164-25.173.285-58.948 30.271-61.44 9.236-.767 11.939 10.692 4.808 14.451-15.189 8.005-23.599 24.623-20.904 41.697z" fill="#b9dcff"/><g fill="#2e58ff"><path d="m67.968 427.968c-16.542 0-30-13.458-30-30v-99.347c0-18.286-6.625-35.944-18.653-49.721-4.445-5.092-4.445-12.771 0-17.863 12.028-13.777 18.653-31.435 18.653-49.721v-99.348c0-16.542 13.458-30 30-30 4.418 0 8-3.582 8-8s-3.582-8-8-8c-25.364 0-46 20.636-46 46v99.347c0 14.416-5.223 28.337-14.706 39.199-9.683 11.09-9.683 27.818 0 38.908 9.483 10.862 14.706 24.783 14.706 39.199v99.347c0 25.364 20.636 46 46 46 4.418 0 8-3.582 8-8s-3.582-8-8-8z"/><path d="m472.673 220.514c-9.483-10.862-14.706-24.783-14.706-39.199v-99.347c0-25.364-20.636-46-46-46-4.418 0-8 3.582-8 8s3.582 8 8 8c16.542 0 30 13.458 30 30v99.347c0 18.286 6.625 35.944 18.653 49.721 4.445 5.092 4.445 12.771 0 17.863-12.028 13.777-18.653 31.435-18.653 49.721v99.347c0 16.542-13.458 30-30 30-4.418 0-8 3.582-8 8s3.582 8 8 8c25.364 0 46-20.636 46-46v-99.347c0-14.416 5.223-28.337 14.706-39.199 9.684-11.089 9.684-27.817 0-38.907z"/><path d="m155.51 118.916c-4.413.224-7.808 3.983-7.584 8.396.932 18.35-13.627 33.656-31.958 33.656-17.645 0-32-14.355-32-32 0-23.868 25.159-39.127 46.201-28.687 3.958 1.965 8.758.348 10.722-3.61s.348-8.758-3.61-10.722c-31.726-15.744-69.313 7.334-69.313 43.019 0 26.467 21.533 48 48 48 27.506 0 49.334-22.972 47.938-50.468-.225-4.413-3.975-7.798-8.396-7.584z"/><path d="m403.859 332.401c-1.987-3.946-6.797-5.533-10.744-3.546-3.946 1.987-5.534 6.797-3.546 10.744 10.622 21.092-4.705 46.37-28.602 46.37-17.645 0-32-14.355-32-32s14.355-32 32-32c4.418 0 8-3.582 8-8s-3.582-8-8-8c-26.467 0-48 21.533-48 48s21.533 48 48 48c35.828-.001 58.867-37.85 42.892-69.568z"/><path d="m239.968 207.968c-17.645 0-32 14.355-32 32 0 4.418 3.582 8 8 8s8-3.582 8-8c0-8.822 7.178-16 16-16s16 7.178 16 16-7.178 16-16 16c-4.418 0-8 3.582-8 8s3.582 8 8 8c17.645 0 32-14.355 32-32s-14.355-32-32-32z"/><path d="m115.968 207.968c-4.418 0-8 3.582-8 8s3.582 8 8 8c8.822 0 16 7.178 16 16s-7.178 16-16 16-16-7.178-16-16c0-4.418-3.582-8-8-8s-8 3.582-8 8c0 17.645 14.355 32 32 32s32-14.355 32-32-14.355-32-32-32z"/><path d="m263.968 342.968c-4.418 0-8 3.582-8 8 0 8.822-7.178 16-16 16s-16-7.178-16-16 7.178-16 16-16c4.418 0 8-3.582 8-8s-3.582-8-8-8c-17.645 0-32 14.355-32 32s14.355 32 32 32 32-14.355 32-32c0-4.419-3.582-8-8-8z"/><path d="m115.968 321.968c-17.645 0-32 14.355-32 32s14.355 32 32 32c4.418 0 8-3.582 8-8s-3.582-8-8-8c-8.822 0-16-7.178-16-16s7.178-16 16-16 16 7.178 16 16c0 4.418 3.582 8 8 8s8-3.582 8-8c0-17.645-14.355-32-32-32z"/><path d="m239.968 96.968c-17.645 0-32 14.355-32 32s14.355 32 32 32c4.418 0 8-3.582 8-8s-3.582-8-8-8c-8.822 0-16-7.178-16-16s7.178-16 16-16 16 7.178 16 16c0 4.418 3.582 8 8 8s8-3.582 8-8c0-17.645-14.355-32-32-32z"/><path d="m360.968 160.968c17.645 0 32-14.355 32-32s-14.355-32-32-32c-4.418 0-8 3.582-8 8s3.582 8 8 8c8.822 0 16 7.178 16 16s-7.178 16-16 16-16-7.178-16-16c0-4.418-3.582-8-8-8s-8 3.582-8 8c0 17.645 14.355 32 32 32z"/><path d="m360.968 271.968c17.645 0 32-14.355 32-32 0-4.418-3.582-8-8-8s-8 3.582-8 8c0 8.822-7.178 16-16 16s-16-7.178-16-16 7.178-16 16-16c4.418 0 8-3.582 8-8s-3.582-8-8-8c-17.645 0-32 14.355-32 32s14.355 32 32 32z"/></g></svg>