<?xml version="1.0" encoding="UTF-8"?>
<!-- Generated by Pixelmator Pro 2.4.5 -->
<svg width="653" height="653" viewBox="0 0 653 653" xmlns="http://www.w3.org/2000/svg" xmlns:xlink="http://www.w3.org/1999/xlink">
    <path id="Path" fill="#ffffff" stroke="none" d="M 335.368378 155.89682 L 321.163727 155.89682 L 321.163727 141.697388 C 321.163727 48.844543 370.341614 -0.333313 463.194458 -0.333313 L 477.39389 -0.333313 L 477.39389 13.871277 C 477.39389 106.718933 428.216003 155.89682 335.368378 155.89682 Z M 448.454102 28.606445 C 386.673553 32.866272 354.363373 65.176514 349.921478 127.139038 C 412.773468 122.879211 444.371094 91.276428 448.454102 28.606445 Z"/>
    <path id="path1" fill="#ffffff" stroke="none" d="M 448.989838 653.001709 C 426.109497 652.986145 403.577637 647.441589 383.303162 636.846619 C 353.41153 620.842346 317.496857 620.842346 287.610443 636.846619 C 267.330719 647.441589 244.798889 652.986145 221.918564 653.001709 C 126.407883 653.001709 51.483776 521.976868 51.483776 354.740875 C 51.483776 253.009491 128.004669 170.10144 221.918564 170.10144 C 239.504013 170.10144 256.969818 173.040161 273.582642 178.803162 L 326.312988 197.085571 C 332.351654 199.171265 338.915619 199.171265 344.954285 197.085571 L 397.502594 178.803162 C 414.063385 173.066162 431.461578 170.127441 448.989838 170.10144 C 500.295013 170.10144 548.229797 194.781403 580.898926 237.743805 L 593.324707 254.252594 L 573.440308 259.932343 C 522.384766 274.646698 488.378937 322.82074 491.619324 375.857971 C 494.854492 428.895172 534.467285 472.575317 586.932373 480.964966 L 603.092651 483.627991 L 598.120239 499.252563 C 568.649963 594.055908 511.306091 653.001709 448.989838 653.001709 Z M 335.368378 596.188416 C 356.667511 596.354858 377.618164 601.654907 396.43631 611.636108 C 412.633026 620.187012 430.676208 624.634094 448.989838 624.592468 C 495.504669 624.592468 539.710144 579.32074 566.340576 505.468079 C 505.184204 488.309143 462.98642 432.458038 463.194458 368.940308 C 463.438904 313.713348 495.520264 263.583649 545.566772 240.22998 C 519.472046 213.599548 485.206177 198.505524 448.989838 198.505524 C 434.608337 198.510712 420.325684 200.908478 406.734802 205.610443 L 354.009674 223.892853 C 341.984375 228.022644 328.924011 228.022644 316.9039 223.892853 L 263.996735 205.610443 C 250.405838 200.908478 236.123184 198.505524 221.741714 198.505524 C 143.447189 198.505524 79.716194 268.634064 79.716194 354.740875 C 79.716194 501.031403 144.690292 624.592468 221.741714 624.592468 C 240.055344 624.639282 258.103699 620.1922 274.295227 611.636108 C 293.113373 601.654907 314.064026 596.354858 335.368378 596.188416 Z"/>
</svg>
