<svg id="Capa_1" enable-background="new 0 0 512 512" height="512" viewBox="0 0 512 512" width="512" xmlns="http://www.w3.org/2000/svg"><g><path d="m101.607 510.509c-32.324 0-58.621-26.297-58.621-58.621v-152.903c0-13.762-11.196-24.957-24.958-24.957-9.957 0-18.028-8.071-18.028-18.028s8.071-18.028 18.028-18.028c13.762 0 24.958-11.196 24.958-24.957v-152.903c0-32.323 26.297-58.621 58.621-58.621 9.957 0 18.028 8.071 18.028 18.028s-8.071 18.028-18.028 18.028c-12.442 0-22.564 10.122-22.564 22.564v152.902c0 16.752-6.787 31.949-17.754 42.985 10.967 11.037 17.754 26.234 17.754 42.985v152.902c0 12.442 10.123 22.564 22.564 22.564 9.957 0 18.028 8.071 18.028 18.028 0 9.96-8.072 18.032-18.028 18.032z" fill="#9dc6fb"/><path d="m410.393 510.509c32.324 0 58.621-26.297 58.621-58.621v-152.903c0-13.762 11.196-24.957 24.958-24.957 9.957 0 18.028-8.071 18.028-18.028s-8.071-18.028-18.028-18.028c-13.762 0-24.958-11.196-24.958-24.957v-152.903c0-32.323-26.297-58.621-58.621-58.621-9.957 0-18.028 8.071-18.028 18.028s8.071 18.028 18.028 18.028c12.442 0 22.564 10.122 22.564 22.564v152.902c0 16.752 6.787 31.949 17.754 42.985-10.967 11.037-17.754 26.234-17.754 42.985v152.902c0 12.442-10.123 22.564-22.564 22.564-9.957 0-18.028 8.071-18.028 18.028 0 9.96 8.072 18.032 18.028 18.032z" fill="#9dc6fb"/><path d="m58.778 451.888v-152.903c0-13.762-11.196-24.957-24.958-24.957-9.957 0-18.028-8.071-18.028-18.028s8.071-18.028 18.028-18.028c13.762 0 24.958-11.196 24.958-24.957v-152.903c0-28.851 20.956-52.883 48.442-57.718-1.768-.579-3.652-.903-5.613-.903-32.324 0-58.621 26.297-58.621 58.621v152.902c0 13.762-11.196 24.957-24.958 24.957-9.957.001-18.028 8.072-18.028 18.029s8.071 18.028 18.028 18.028c13.762 0 24.958 11.196 24.958 24.957v152.902c0 32.323 26.297 58.621 58.621 58.621 1.962 0 3.845-.324 5.613-.903-27.486-4.834-48.442-28.866-48.442-57.717z" fill="#80b4fb"/><path d="m408.157 492.48c0-9.957 8.071-18.028 18.028-18.028 12.442 0 22.564-10.122 22.564-22.564v-152.903c0-16.751 6.787-31.949 17.754-42.985-10.967-11.037-17.754-26.234-17.754-42.985v-152.903c0-12.442-10.123-22.564-22.564-22.564-9.957 0-18.028-8.071-18.028-18.028 0-7.995 5.209-14.764 12.414-17.125-3.308-.582-6.706-.903-10.179-.903-9.957 0-18.028 8.071-18.028 18.028s8.071 18.028 18.028 18.028c12.442 0 22.564 10.122 22.564 22.564v152.902c0 16.752 6.787 31.949 17.754 42.985-10.967 11.037-17.754 26.234-17.754 42.985v152.902c0 12.442-10.123 22.564-22.564 22.564-9.957 0-18.028 8.071-18.028 18.028s8.071 18.028 18.028 18.028c3.473 0 6.87-.321 10.179-.903-7.205-2.358-12.414-9.128-12.414-17.123z" fill="#80b4fb"/><g><g fill="#eab14d"><path d="m365.98 135.592c-15.921 0-28.873-12.953-28.873-28.873v-20.291c0-15.921 12.953-28.873 28.873-28.873 15.921 0 28.873 12.953 28.873 28.873v20.291c0 15.92-12.953 28.873-28.873 28.873zm0-62.585c-7.4 0-13.421 6.021-13.421 13.421v20.291c0 7.4 6.02 13.421 13.421 13.421 7.4 0 13.421-6.021 13.421-13.421v-20.291c-.001-7.4-6.021-13.421-13.421-13.421z"/><path d="m281.392 135.592c-15.921 0-28.873-12.953-28.873-28.873v-20.291c0-15.921 12.953-28.873 28.873-28.873 15.921 0 28.873 12.953 28.873 28.873v20.291c.001 15.92-12.952 28.873-28.873 28.873zm0-62.585c-7.4 0-13.421 6.021-13.421 13.421v20.291c0 7.4 6.02 13.421 13.421 13.421 7.4 0 13.421-6.021 13.421-13.421v-20.291c0-7.4-6.02-13.421-13.421-13.421z"/></g><g fill="#eab14d"><path d="m217.953 135.592c-4.268 0-7.726-3.459-7.726-7.726v-62.585c0-4.267 3.459-7.726 7.726-7.726s7.726 3.459 7.726 7.726v62.585c0 4.266-3.459 7.726-7.726 7.726z"/><path d="m175.659 135.592c-4.268 0-7.726-3.459-7.726-7.726v-62.585c0-4.267 3.459-7.726 7.726-7.726s7.726 3.459 7.726 7.726v62.585c0 4.266-3.458 7.726-7.726 7.726z"/><path d="m133.365 135.592c-4.268 0-7.726-3.459-7.726-7.726v-62.585c0-4.267 3.459-7.726 7.726-7.726s7.726 3.459 7.726 7.726v62.585c.001 4.266-3.458 7.726-7.726 7.726z"/></g><g><path d="m387.127 241.876c-4.268 0-7.726-3.459-7.726-7.726v-62.585c0-4.267 3.459-7.726 7.726-7.726s7.726 3.459 7.726 7.726v62.585c0 4.267-3.459 7.726-7.726 7.726z" fill="#eab14d"/></g><g fill="#eab14d"><g><path d="m344.833 241.876c-4.268 0-7.726-3.459-7.726-7.726v-62.585c0-4.267 3.459-7.726 7.726-7.726s7.726 3.459 7.726 7.726v62.585c0 4.267-3.458 7.726-7.726 7.726z"/><path d="m302.539 241.876c-4.268 0-7.726-3.459-7.726-7.726v-62.585c0-4.267 3.459-7.726 7.726-7.726s7.726 3.459 7.726 7.726v62.585c.001 4.267-3.458 7.726-7.726 7.726z"/></g><g><path d="m239.099 241.876c-15.921 0-28.872-12.953-28.872-28.873v-20.291c0-15.921 12.952-28.873 28.872-28.873s28.873 12.953 28.873 28.873v20.291c0 15.921-12.953 28.873-28.873 28.873zm0-62.584c-7.399 0-13.42 6.021-13.42 13.421v20.291c0 7.4 6.02 13.421 13.42 13.421s13.421-6.021 13.421-13.421v-20.291c-.001-7.401-6.021-13.421-13.421-13.421z"/><path d="m175.659 241.876c-4.268 0-7.726-3.459-7.726-7.726v-62.585c0-4.267 3.459-7.726 7.726-7.726s7.726 3.459 7.726 7.726v62.585c0 4.267-3.458 7.726-7.726 7.726z"/><path d="m133.365 241.876c-4.268 0-7.726-3.459-7.726-7.726v-62.585c0-4.267 3.459-7.726 7.726-7.726s7.726 3.459 7.726 7.726v62.585c.001 4.267-3.458 7.726-7.726 7.726z"/></g><g><path d="m365.98 348.161c-15.921 0-28.873-12.953-28.873-28.873v-20.291c0-15.921 12.953-28.873 28.873-28.873 15.921 0 28.873 12.953 28.873 28.873v20.291c0 15.92-12.953 28.873-28.873 28.873zm0-62.585c-7.4 0-13.421 6.021-13.421 13.421v20.291c0 7.4 6.02 13.421 13.421 13.421 7.4 0 13.421-6.021 13.421-13.421v-20.291c-.001-7.4-6.021-13.421-13.421-13.421z"/><path d="m302.539 348.161c-4.268 0-7.726-3.459-7.726-7.726v-62.585c0-4.267 3.459-7.726 7.726-7.726s7.726 3.459 7.726 7.726v62.585c.001 4.267-3.458 7.726-7.726 7.726z"/><path d="m260.245 348.161c-4.268 0-7.726-3.459-7.726-7.726v-62.585c0-4.267 3.459-7.726 7.726-7.726s7.726 3.459 7.726 7.726v62.585c.001 4.267-3.458 7.726-7.726 7.726z"/></g><g><path d="m196.806 348.161c-15.921 0-28.873-12.953-28.873-28.873v-20.291c0-15.921 12.953-28.873 28.873-28.873s28.873 12.953 28.873 28.873v20.291c0 15.92-12.953 28.873-28.873 28.873zm0-62.585c-7.4 0-13.421 6.021-13.421 13.421v20.291c0 7.4 6.02 13.421 13.421 13.421s13.421-6.021 13.421-13.421v-20.291c-.001-7.4-6.021-13.421-13.421-13.421z"/><path d="m133.365 348.161c-4.268 0-7.726-3.459-7.726-7.726v-62.585c0-4.267 3.459-7.726 7.726-7.726s7.726 3.459 7.726 7.726v62.585c.001 4.267-3.458 7.726-7.726 7.726z"/></g><g><path d="m154.512 454.446c-15.921 0-28.873-12.953-28.873-28.873v-20.291c0-15.921 12.953-28.873 28.873-28.873s28.873 12.953 28.873 28.873v20.291c0 15.92-12.952 28.873-28.873 28.873zm0-62.585c-7.4 0-13.421 6.021-13.421 13.421v20.291c0 7.4 6.02 13.421 13.421 13.421s13.421-6.021 13.421-13.421v-20.291c0-7.4-6.021-13.421-13.421-13.421z"/><path d="m217.953 454.446c-4.268 0-7.726-3.459-7.726-7.726v-62.585c0-4.267 3.459-7.726 7.726-7.726s7.726 3.459 7.726 7.726v62.585c0 4.266-3.459 7.726-7.726 7.726z"/></g><g><path d="m281.392 454.446c-15.921 0-28.873-12.953-28.873-28.873v-20.291c0-15.921 12.953-28.873 28.873-28.873 15.921 0 28.873 12.953 28.873 28.873v20.291c.001 15.92-12.952 28.873-28.873 28.873zm0-62.585c-7.4 0-13.421 6.021-13.421 13.421v20.291c0 7.4 6.02 13.421 13.421 13.421 7.4 0 13.421-6.021 13.421-13.421v-20.291c0-7.4-6.02-13.421-13.421-13.421z"/><path d="m344.833 454.446c-4.268 0-7.726-3.459-7.726-7.726v-62.585c0-4.267 3.459-7.726 7.726-7.726s7.726 3.459 7.726 7.726v62.585c0 4.266-3.458 7.726-7.726 7.726z"/><path d="m387.127 454.446c-4.268 0-7.726-3.459-7.726-7.726v-62.585c0-4.267 3.459-7.726 7.726-7.726s7.726 3.459 7.726 7.726v62.585c0 4.266-3.459 7.726-7.726 7.726z"/></g></g></g></g></svg>