<svg id="Layer_1" enable-background="new 0 0 64 64" height="512" viewBox="0 0 64 64" width="512" xmlns="http://www.w3.org/2000/svg"><g><path d="m59.502 62.5h-55.004c-1.656 0-2.998-1.342-2.998-2.998v-55.004c0-1.656 1.342-2.998 2.998-2.998h55.004c1.656 0 2.998 1.342 2.998 2.998v55.004c0 1.656-1.342 2.998-2.998 2.998z" fill="#fff"/><path d="m62.5 55.94v3.56c0 1.66-1.34 3-3 3h-55c-1.66 0-3-1.34-3-3v-55c0-1.66 1.34-3 3-3h3.56c1.27 29.49 24.95 53.17 54.44 54.44z" fill="#efefef"/><path d="m7.5 7.5h7v14h-7z" fill="#06afff"/><path d="m14.5 33.5h9v10h-9z" fill="#fcda35"/><path d="m46.5 17.5h10v7h-10z" fill="#ff56cb"/><path d="m50.5 38.5h6v18h-6z" fill="#06afff"/><path d="m9.8 21.5h-2.3v-7.46c.6 2.56 1.37 5.05 2.3 7.46z" fill="#0688ff"/><path d="m22.94 43.5h-8.44v-9.99c2.42 3.65 5.25 7 8.44 9.99z" fill="#faca00"/><path d="m55.49 24.5h-8.99v-7h.4c2.62 2.6 5.5 4.95 8.59 7z" fill="#d949ac"/><g fill="#2828b8"><path d="m59.502 63h-55.004c-1.929 0-3.498-1.569-3.498-3.498v-55.004c0-1.929 1.569-3.498 3.498-3.498h55.004c1.929 0 3.498 1.569 3.498 3.498v55.004c0 1.929-1.569 3.498-3.498 3.498zm-55.004-61c-1.377 0-2.498 1.121-2.498 2.498v55.004c0 1.377 1.121 2.498 2.498 2.498h55.004c1.377 0 2.498-1.121 2.498-2.498v-55.004c0-1.377-1.121-2.498-2.498-2.498z"/><path d="m7.5 39c-.276 0-.5-.224-.5-.5v-5c0-.276.224-.5.5-.5s.5.224.5.5v5c0 .276-.224.5-.5.5z"/><path d="m33.5 57h-26c-.276 0-.5-.224-.5-.5v-13c0-.276.224-.5.5-.5s.5.224.5.5v12.5h25.5c.276 0 .5.224.5.5s-.224.5-.5.5z"/><path d="m56.5 57h-17c-.276 0-.5-.224-.5-.5s.224-.5.5-.5h16.5v-48.5c0-.276.224-.5.5-.5s.5.224.5.5v49c0 .276-.224.5-.5.5z"/><path d="m46.5 25c-.276 0-.5-.224-.5-.5v-7c0-.276.224-.5.5-.5s.5.224.5.5v7c0 .276-.224.5-.5.5z"/><path d="m7.5 31c-.276 0-.5-.224-.5-.5v-23c0-.276.224-.5.5-.5h43c.276 0 .5.224.5.5s-.224.5-.5.5h-42.5v22.5c0 .276-.224.5-.5.5z"/><path d="m14.5 51c-.276 0-.5-.224-.5-.5v-43c0-.276.224-.5.5-.5s.5.224.5.5v43c0 .276-.224.5-.5.5z"/><path d="m56.5 25h-42c-.276 0-.5-.224-.5-.5s.224-.5.5-.5h42c.276 0 .5.224.5.5s-.224.5-.5.5z"/><path d="m56.5 18h-19c-.276 0-.5-.224-.5-.5s.224-.5.5-.5h19c.276 0 .5.224.5.5s-.224.5-.5.5z"/><path d="m23.5 51c-.276 0-.5-.224-.5-.5v-20c0-.276.224-.5.5-.5s.5.224.5.5v20c0 .276-.224.5-.5.5z"/><path d="m23.5 63c-.276 0-.5-.224-.5-.5v-6c0-.276.224-.5.5-.5s.5.224.5.5v6c0 .276-.224.5-.5.5z"/><path d="m43.5 51c-.276 0-.5-.224-.5-.5v-12c0-.276.224-.5.5-.5h13c.276 0 .5.224.5.5s-.224.5-.5.5h-12.5v11.5c0 .276-.224.5-.5.5z"/><path d="m38.5 39h-15c-.276 0-.5-.224-.5-.5s.224-.5.5-.5h14.5v-7.5c0-.276.224-.5.5-.5s.5.224.5.5v8c0 .276-.224.5-.5.5z"/><path d="m50.5 33h-12c-.276 0-.5-.224-.5-.5s.224-.5.5-.5h12c.276 0 .5.224.5.5s-.224.5-.5.5z"/><path d="m22.5 19c-.276 0-.5-.224-.5-.5v-11c0-.276.224-.5.5-.5s.5.224.5.5v11c0 .276-.224.5-.5.5z"/><path d="m31.5 25c-.276 0-.5-.224-.5-.5v-11c0-.276.224-.5.5-.5s.5.224.5.5v11c0 .276-.224.5-.5.5z"/><path d="m33.5 57c-.276 0-.5-.224-.5-.5v-12c0-.276.224-.5.5-.5s.5.224.5.5v12c0 .276-.224.5-.5.5z"/><path d="m50.5 57c-.276 0-.5-.224-.5-.5v-18c0-.276.224-.5.5-.5s.5.224.5.5v18c0 .276-.224.5-.5.5z"/><path d="m14.5 22h-7c-.276 0-.5-.224-.5-.5s.224-.5.5-.5h7c.276 0 .5.224.5.5s-.224.5-.5.5z"/><path d="m23.5 44h-9c-.276 0-.5-.224-.5-.5s.224-.5.5-.5h9c.276 0 .5.224.5.5s-.224.5-.5.5z"/><path d="m23.5 34h-9c-.276 0-.5-.224-.5-.5s.224-.5.5-.5h9c.276 0 .5.224.5.5s-.224.5-.5.5z"/><path d="m40.5 8c-.276 0-.5-.224-.5-.5v-6c0-.276.224-.5.5-.5s.5.224.5.5v6c0 .276-.224.5-.5.5z"/></g></g></svg>