<svg id="Layer_1" enable-background="new 0 0 53 53" height="512" viewBox="0 0 53 53" width="512" xmlns="http://www.w3.org/2000/svg"><g id="_x34_0"><g><g><g><path d="m48.5600243 41.5319138-12.1509132-9.746603-4.706728 4.706728 9.8871479 12.0424461c1.8392525 2.3638077 5.333931 2.5810356 7.451767.4632034l.0000076-.0000076c2.1243209-2.1243248 1.8982124-5.6317826-.4812813-7.4657669z" fill="#65b9ff"/></g></g><g><g><path d="m49.9180031 47.8113136c-.2200317.4299927-.5200195.8300171-.8800049 1.1900024-2.1099854 2.1099854-5.6099854 1.8999634-7.4500122-.4700317l-9.8900127-12.039978 4.7100201-4.710022.1300049.1000366v.0000019c-1.3277321 1.3276958-1.4313469 3.4461842-.2395172 4.8971119l7.789505 9.4828911c1.4199828 1.8200074 3.8400267 2.3699952 5.830017 1.5499878z" fill="#3e7fff"/></g></g><g><g><path d="m36.9840736 31.569912-5.3707066 5.3707085c-.7064075.7064056-1.8517189.7064056-2.5581264 0l-1.3725872-1.3725891 7.9288349-7.928833 1.3725853 1.3725872c.7064095.7064075.7064095 1.8517207 0 2.5581264z" fill="#312e4b"/></g></g><g><g><g><g><path d="m18.333107 41.3233528h-8.2039957c-.3280926 0-.5942812-.2661896-.5942812-.5942841s.2661886-.5942802.5942812-.5942802h8.2039957c.3280926 0 .5942822.2661858.5942822.5942802s-.2661896.5942841-.5942822.5942841z" fill="#deddff"/></g></g></g><g><g><g><path d="m15.0312834 43.7337532h-4.9021721c-.3280926 0-.5942812-.2661896-.5942812-.5942841 0-.3280907.2661886-.5942802.5942812-.5942802h4.9021721c.3280926 0 .5942812.2661896.5942812.5942802 0 .3280945-.2661886.5942841-.5942812.5942841z" fill="#deddff"/></g></g></g></g><g><g><g><g><path d="m18.333107 47.5722122h-8.2039957c-.3280926 0-.5942812-.2661858-.5942812-.5942802s.2661886-.5942802.5942812-.5942802h8.2039957c.3280926 0 .5942822.2661858.5942822.5942802s-.2661896.5942802-.5942822.5942802z" fill="#deddff"/></g></g></g><g><g><g><path d="m15.0312834 49.9826164h-4.9021721c-.3280926 0-.5942812-.2661896-.5942812-.5942841s.2661886-.5942802.5942812-.5942802h4.9021721c.3280926 0 .5942812.2661858.5942812.5942802s-.2661886.5942841-.5942812.5942841z" fill="#deddff"/></g></g></g></g><g><g><g><path d="m6.7428174 44.2947617h-3.1991723c-.5752966 0-1.0416667-.4663696-1.0416667-1.0416679v-2.6379051c0-.5752983.4663701-1.0416679 1.0416667-1.0416679h3.1991723c.5752964 0 1.0416665.4663696 1.0416665 1.0416679v2.6379051c0 .5752982-.4663701 1.0416679-1.0416665 1.0416679z" fill="#46cc6b"/></g></g><g><g><path d="m6.7428174 50.5436249h-3.1991723c-.5752966 0-1.0416667-.4663734-1.0416667-1.0416679v-2.6379051c0-.5752983.4663701-1.0416679 1.0416667-1.0416679h3.1991723c.5752964 0 1.0416665.4663696 1.0416665 1.0416679v2.6379051c0 .5752944-.4663701 1.0416679-1.0416665 1.0416679z" fill="#e83d62"/></g></g></g><g><g><g><path d="m6.9799805 44.2618599c-.0800171.0200195-.1600342.0300293-.2399902.0300293h-3.2000123c-.5700073 0-1.039978-.460022-1.039978-1.039978v-2.6400146c0-.5700073.4699707-1.0400391 1.039978-1.0400391h1.3900146c-.460022.1100464-.7999878.5200195-.7999878 1.0100098v2.6400146c0 .5800171.4599609 1.039978 1.039978 1.039978z" fill="#179c5f"/></g></g><g><g><path d="m6.9799805 50.5118599c-.0800171.0200195-.1600342.0300293-.2399902.0300293h-3.2000123c-.5700073 0-1.039978-.460022-1.039978-1.039978v-2.6400146c0-.5700073.4699707-1.0400391 1.039978-1.0400391h1.3900146c-.460022.1100464-.7999878.5200195-.7999878 1.0100098v2.6400146c0 .5700073.4599609 1.039978 1.039978 1.039978z" fill="#ce2955"/></g></g><g><g><g><g><path d="m37.1132278 47.5722122h-8.2039967c-.3280926 0-.5942822-.2661858-.5942822-.5942802s.2661896-.5942802.5942822-.5942802h8.2039967c.3280907 0 .5942802.2661858.5942802.5942802s-.2661895.5942802-.5942802.5942802z" fill="#deddff"/></g></g></g><g><g><g><path d="m33.8114014 49.9826164h-4.9021702c-.3280926 0-.5942822-.2661896-.5942822-.5942841s.2661896-.5942802.5942822-.5942802h4.9021702c.3280945 0 .5942841.2661858.5942841.5942802s-.2661897.5942841-.5942841.5942841z" fill="#deddff"/></g></g></g></g><g><g><path d="m25.5229359 50.5436249h-3.1991711c-.5752964 0-1.0416679-.4663734-1.0416679-1.0416679v-2.6379051c0-.5752983.4663715-1.0416679 1.0416679-1.0416679h3.1991711c.5752964 0 1.0416679.4663696 1.0416679 1.0416679v2.6379051c0 .5752944-.4663715 1.0416679-1.0416679 1.0416679z" fill="#fcb73e"/></g></g><g><g><path d="m25.7600994 50.5118599c-.0800171.0200195-.1600342.0300293-.2399902.0300293h-3.2000122c-.5700073 0-1.039978-.460022-1.039978-1.039978v-2.6400146c0-.5700073.4699707-1.0400391 1.039978-1.0400391h1.3900146c-.460022.1100464-.7999878.5200195-.7999878 1.0100098v2.6400146c0 .5700073.4599609 1.039978 1.039978 1.039978z" fill="#fd982e"/></g></g></g><g><g><g><g><g><g><path d="m32.4392815 32.3958282c-6.8584061 6.8394966-17.951252 6.8394966-24.8096561 0-6.8394995-6.8489246-6.8394995-17.951252 0-24.8096581 6.8584056-6.8394413 17.9606743-6.8394413 24.8096561 0 6.8394432 6.848982 6.8394432 17.9607335 0 24.8096581z" fill="#5b5e8b"/></g></g><g><g><path d="m10.1210146 32.3958282c3.1070976 3.1071548 7.0952311 4.7933083 11.1591043 5.0774841-4.8880157.3505554-9.8992434-1.3451424-13.6504936-5.0774841-6.8394995-6.8489246-6.8394995-17.951252 0-24.8096581 3.7418265-3.7323442 8.7529945-5.4279814 13.6504936-5.0869689-4.0638733.2841768-8.0520067 1.9798717-11.1591043 5.0869689-6.8394992 6.8584062-6.8394992 17.9607335 0 24.8096581z" fill="#312e4b"/></g></g><g><g><path d="m29.554203 29.5107594c-5.2632999 5.2487926-13.7762098 5.2487926-19.0395107 0-5.2487926-5.2560253-5.2487926-13.7762108 0-19.0395126 5.2633009-5.2487483 13.7834435-5.2487483 19.0395107 0 5.2487488 5.2560701 5.2487488 13.7834872 0 19.0395126z" fill="#deddff"/></g></g></g></g></g></g></g><g><g><g><path d="m11.1409225 22.3675804.7056713-.3466682v3.9942341h-.8961334c-.6007042 0-.6184616.9259357 0 .9259357 2.6316767-.0406055 2.6957769.0972233 2.9316168-.1305141.1846104-.1783657.1841698-.475935.0013704-.6594257-.2166891-.2166901-.4450951-.1062775-1.0598764-.1359959-.0502377-4.8696594.11411-4.7501144-.1486702-5.0119762-.2021322-.2021332-.420927-.1354733-.5364475-.1486702-.2581568 0-.372901.1393909-1.427784.6676464-.3449888.1718426-.3421783.5782776-.1459303.7745247.0870009.0873527.3176461.1796741.5761833.0709094z" fill="#e83d62"/></g></g><g><g><path d="m15.608573 21.6307373c-.812644 1.1364536-.8131437 3.3969555 0 4.5341072.8324633 1.1602974 2.7271814 1.1563911 3.5598707.0003414.4035339-.5593987.6090679-1.3222752.6090679-2.267395 0-3.6492882-3.1401253-3.7010269-4.1689386-2.2670536zm2.8178873 3.9109917c-.4868526.7618237-1.5820065.7642727-2.070425 0-.6206589-.9737339-.6223888-3.8455639 1.0345287-3.8455639.4542313 0 .7926807.1853256 1.0358963.5659084.5072174.7964554.4990768 2.4966698 0 3.2796555z" fill="#46cc6b"/></g></g><g><g><path d="m21.7150249 22.3675804.7056694-.3466682v3.9942341h-.8961334c-.6007042 0-.6184616.9259357 0 .9259357 2.6316776-.0406055 2.6957779.0972233 2.9316177-.1305141.1846104-.1783657.1841698-.475935.0013695-.6594257-.2166882-.2166901-.4450932-.1062775-1.0598755-.1359959-.0502377-4.8696594.1141109-4.7501144-.1486702-5.0119762-.2021332-.2021332-.420927-.1354733-.5364475-.1486702-.2581558 0-.3729019.1393909-1.427784.6676464-.3449898.1718426-.3421783.5782776-.1459312.7745247.0870114.0873527.3176346.1796798.5761852.0709094z" fill="#e83d62"/></g></g><g><g><path d="m27.9646645 20.7702293c-1.7019253 0-2.3869495 1.4350643-2.3869495 3.1275616 0 1.6928558.6853256 3.1275597 2.3869495 3.1275597 1.6941929 0 2.3869495-1.4396305 2.3869495-3.1275597 0-.9451199-.2055359-1.7079983-.6090698-2.2673969-.4124413-.5707016-1.0105477-.8601647-1.7778797-.8601647zm1.0345268 4.7714997c-.4842491.7627296-1.5836678.7634335-2.0697384 0-.5002327-.784111-.5080032-2.4837818.0006847-3.2796555.484251-.7627296 1.5836697-.7634335 2.0697403 0 .2486973.390173.3747578.9403229.3747578 1.6357174 0 .7012177-.1260605 1.2541065-.3747578 1.6439381z" fill="#46cc6b"/></g></g><g><g><path d="m10.3222075 13.8171959c-.8126192 1.1322584-.8132582 3.4009571 0 4.5341072.826664 1.1522141 2.7194166 1.1632957 3.5598698.0003414.8177929-1.1336632.8190756-3.3993492 0-4.534791-.8405543-1.1630935-2.7333346-1.1516924-3.5598698.0003424zm2.8165178 3.9109936c-.484251.7627277-1.5836697.7634315-2.0697393 0-.5002327-.7841129-.5080042-2.4837837.0006847-3.2796574.6034555-.9504862 2.444499-.9407291 2.444499 1.6357174 0 .7012177-.1260624 1.2541065-.3747597 1.64394z" fill="#fcb73e"/></g></g><g><g><path d="m17.9626369 13.1896286c-.0986576-.0986567-.219923-.1486702-.3610573-.1486702-.1053925.0067959-.2612228-.0290213-.4610844.0709095-.9463692.5592394-1.420248.5606012-1.420248 1.0358973 0 .277935.1989899.4672499.4672508.4672499.1963863 0 .4080772-.1583767.9468307-.4076443v3.9942341h-.8961334c-.2591944 0-.4590282.2024899-.4590282.4672489 0 .129488.0445328.2394485.1308575.3268013l.0006857.0006847c.2322702.2286701.2986135.0902824 2.9281912.1312008.2532558 0 .4672508-.1882362.4672508-.4586868 0-.2672424-.210495-.4672489-.4672508-.4672489h-.7275944v-4.6512623c0-.1397639-.0500145-.2610293-.1486702-.360714z" fill="#e83d62"/></g></g><g><g><path d="m20.8963089 13.8171959c-.8126183 1.1322584-.8132591 3.4009571 0 4.5341072.826664 1.1522141 2.7194176 1.1632957 3.5598698.0003414.8177929-1.1336632.8190746-3.3993492 0-4.534791-.4124413-.5707025-2.7333355-1.1516924-3.5598698.0003424zm2.8165169 3.9109936c-.4842491.7627277-1.5836678.7634315-2.0697384 0-.5002327-.7841129-.5080032-2.4837837.0006847-3.2796574.484251-.7627296 1.5836697-.7634335 2.0697403 0 .2486973.3901739.3747578.9403229.3747578 1.6357174 0 .7012177-.1260605 1.2541065-.3747578 1.64394z" fill="#fcb73e"/></g></g><g><g><path d="m28.535368 13.1896286c-.0986576-.0986567-.2192383-.1486702-.3596878-.1486702h-.1767597c-.0945454 0-.1897774.0236359-.2843227.0709095l-1.1434612.5967369c-.3449898.1718435-.3421783.5782776-.1459312.7745256.1279144.128417.3176346.1796789.5761852.0709095l.7056694-.3466692v3.9942341c-.7165813.0299835-1.009655-.0863094-1.2243042.1377087-.1761112.1844978-.1752243.4790573.0013695.6563416.0863266.0863247.1986847.1318855.3268013.1318855h2.6020756c.1288033 0 .2397919-.043848.3295422-.1305141.0911198-.0880375.1377087-.1986847.1377087-.3281727 0-.1288013-.0459023-.2404747-.1363392-.3312531-.0890636-.0890656-.2034798-.1359959-.3309116-.1359959h-.7289639v-4.6512623c-.0000002-.1414766-.0506995-.2630844-.1486704-.3607139z" fill="#e83d62"/></g></g></g></g></svg>