<svg id="Layer_1" height="512" viewBox="0 0 256 256" width="512" xmlns="http://www.w3.org/2000/svg"><g><g><path d="m251.24 67.125v127.26c0 5.9-4.78 10.68-10.68 10.68h-95.52l1.32 9.36 2.85 20.4h14.48c4.13 0 7.48 3.35 7.48 7.48v7.27h-86.34v-7.27c0-4.13 3.35-7.48 7.48-7.48h14.48l2.85-20.4 1.32-9.36h-95.51c-5.9 0-10.69-4.79-10.69-10.69v-127.25c0-5.9 4.79-10.69 10.69-10.69h31.55v18.32c0 11.05 8.95 20 20 20h122c11.05 0 20-8.95 20-20v-18.32h31.55c5.9 0 10.69 4.79 10.69 10.69z" fill="#72c2e9"/><path d="m236.28 71.395v118.71h-216.56v-118.71h27.28v3.36c0 11.05 8.95 20 20 20h122c11.05 0 20-8.95 20-20v-3.36z" fill="#f0c020"/><path d="m216 71.395v3.36c0 14.89-12.11 27-27 27h-122c-14.89 0-27-12.11-27-27v-3.36h7v3.36c0 11.05 8.95 20 20 20h122c11.05 0 20-8.95 20-20v-3.36z" fill="#e8a61e"/><g fill="#48a6c8"><path d="m40 56.435h7v14.96h-7z"/><path d="m209 56.435h7v14.96h-7z"/><path d="m146.357 214.429h-36.714l1.314-9.36h34.086z"/></g><path d="m209 26.425v48.33c0 11.046-8.954 20-20 20h-122c-11.046 0-20-8.954-20-20v-48.33c0-11.046 8.954-20 20-20h122c11.046 0 20 8.955 20 20z" fill="#efefef"/></g><g><path d="m225.277 181.607h-182.289c-3.303 0-3.308-5 0-5h179.789v-94.211c0-3.303 5-3.308 5 0v96.711c0 1.381-1.119 2.5-2.5 2.5zm-192.289 0h-2.266c-3.303 0-3.308-5 0-5h2.266c3.303 0 3.308 5 0 5z" fill="#f9e5af"/></g><g><path d="m189 87.255h-106.96c-3.303 0-3.308-5 0-5h106.96c4.136 0 7.5-3.364 7.5-7.5v-48.33c0-3.303 5-3.308 5 0v48.33c0 6.893-5.607 12.5-12.5 12.5zm-116.96 0h-5.04c-3.303 0-3.308-5 0-5h5.04c3.303 0 3.308 5 0 5z" fill="#fff"/></g><path d="m160.64 165.78c-3.303 0-3.307 5 0 5h14.34c3.303 0 3.307-5 0-5h-4.67v-19.01c0-1.856-1.96-3.069-3.62-2.24l-6.75 3.39c-2.96 1.468-.691 5.935 2.24 4.47l3.13-1.57v14.96z"/><path d="m177.479 122.98v-7.18c0-12.779-19.34-12.778-19.34 0v7.18c.001 12.757 19.34 12.776 19.34 0zm-14.339-7.18c0-6.168 9.34-6.161 9.34 0v7.18c0 6.156-9.34 6.159-9.34 0z"/><path d="m187.46 127.64c-3.31 0-3.322 5 0 5h14.34c3.308 0 3.299-5 0-5h-4.67v-19.01c0-1.889-1.995-3.047-3.63-2.23l-6.74 3.38c-2.951 1.478-.719 5.962 2.24 4.47l3.13-1.57v14.96z"/><path d="m184.95 161.11c.023 12.772 19.326 12.778 19.35 0v-7.17c-.023-12.784-19.326-12.778-19.35 0zm5-7.17c.023-6.165 9.326-6.196 9.35 0v7.17c-.024 6.187-9.326 6.148-9.35 0z"/><path d="m107 165.78c-3.301 0-3.305 5 0 5h14.35c3.29 0 3.291-5 0-5h-4.68v-19.01c0-1.896-1.986-3.057-3.62-2.24l-6.74 3.39c-2.99 1.495-.685 5.921 2.24 4.47l3.13-1.57v14.96z"/><path d="m123.84 115.8c0-12.784-19.34-12.774-19.34 0v7.17c0 12.786 19.34 12.778 19.34 0zm-4.99 7.17c-.023 6.162-9.326 6.185-9.35 0v-7.17c.023-6.164 9.326-6.172 9.35 0z"/><path d="m148.16 127.64h-4.67v-19.01c0-1.882-1.976-3.052-3.62-2.23l-6.75 3.38c-2.969 1.484-.682 5.948 2.25 4.47l3.12-1.57v14.96h-4.671c-3.296 0-3.312 5 0 5h14.341c3.308 0 3.299-5 0-5z"/><path d="m131.319 153.94v7.17c0 12.779 19.341 12.778 19.341 0v-7.17c0-12.778-19.341-12.778-19.341 0zm14.341 7.17c0 6.145-9.315 6.186-9.341 0v-7.17c.026-6.192 9.341-6.162 9.341 0z"/><path d="m53.37 165.78c-3.303 0-3.307 5 0 5h14.34c3.303 0 3.307-5 0-5h-4.67v-19.01c0-1.896-1.995-3.053-3.62-2.24l-6.75 3.39c-2.953 1.474-.709 5.957 2.24 4.47l3.13-1.57v14.96z"/><path d="m70.21 115.8c0-12.779-19.34-12.778-19.34 0v7.17c0 12.779 19.34 12.778 19.34 0zm-5 7.17c0 6.166-9.34 6.174-9.34 0v-7.17c0-6.168 9.34-6.161 9.34 0z"/><path d="m94.53 127.64h-4.671v-19.01c0-1.887-1.988-3.046-3.619-2.23l-6.75 3.38c-2.931 1.466-.697 5.95 2.239 4.47l3.13-1.56v14.95h-4.67c-3.296 0-3.312 5 0 5h14.341c3.308 0 3.299-5 0-5z"/><path d="m77.689 153.94v7.17c0 12.784 19.341 12.774 19.341 0v-7.17c0-12.773-19.341-12.792-19.341 0zm14.341 7.17c-.026 6.199-9.341 6.137-9.341 0v-7.17c0-6.17 9.315-6.187 9.341 0z"/><circle cx="181.729" cy="190.1" r="2.5"/><path d="m240.55 53.94h-29.05v-27.51c0-12.41-10.101-22.5-22.5-22.5h-14.95c-3.307 0-3.301 4.99 0 4.99h14.95c9.63.02 17.479 7.87 17.5 17.51v48.32c-.021 9.64-7.87 17.49-17.5 17.5h-122c-9.63-.01-17.48-7.86-17.5-17.5v-48.32c.02-9.64 7.87-17.49 17.5-17.51h87.05c3.296 0 3.315-4.99 0-4.99h-87.05c-12.41 0-22.5 10.09-22.5 22.5v27.51h-29.05c-7.271 0-13.19 5.91-13.19 13.19v127.24c0 7.28 5.92 13.19 13.19 13.19h27.61c3.297 0 3.285-4.99 0-4.99h-27.61c-4.511-.01-8.181-3.69-8.19-8.2v-127.24c.01-4.51 3.68-8.19 8.19-8.19h29.05v9.96h-24.78c-1.411 0-2.5 1.143-2.5 2.5v118.7c0 1.365 1.099 2.5 2.5 2.5h152.01c3.307 0 3.299-5 0-5h-149.51v-113.71h22.28c0 14.147 10.69 23.361 22.5 23.37h122c11.665-.009 22.5-9.074 22.5-23.361l22.28-.009v113.71h-42.051c-3.297 0-3.312 5 0 5h44.551c1.351 0 2.5-1.081 2.5-2.5 0-37.707 0-81.002 0-118.7 0-1.398-1.128-2.5-2.5-2.5h-24.78v-9.96h29.05c4.51 0 8.18 3.68 8.19 8.19v127.26c0 4.457-3.614 8.18-8.181 8.18-27.289 0-158.365 0-177.5 0-3.296 0-3.315 4.99 0 4.99h45.022l-3.469 24.76h-12.302c-5.5.01-9.979 4.48-9.979 9.99v7.26c0 1.376 1.12 2.5 2.5 2.5h86.34c1.37 0 2.5-1.098 2.5-2.5v-7.26c0-5.51-4.48-9.98-9.98-9.99h-12.303l-3.469-24.76h92.642c7.347 0 13.181-5.951 13.181-13.17v-127.26c-.002-7.28-5.923-13.19-13.192-13.19zm-71.88 188.37v4.76h-81.34v-4.76c0-2.75 2.239-4.98 4.979-4.99h71.38c2.741.01 4.971 2.24 4.981 4.99zm-59.008-9.99 3.468-24.75h29.74l3.468 24.75z"/><path d="m53.06 207.56c1.37 0 2.49-1.12 2.49-2.49 0-1.38-1.12-2.5-2.49-2.5-1.38 0-2.5 1.12-2.5 2.5 0 1.37 1.12 2.49 2.5 2.49z"/><path d="m147.709 45.259c3.303 0 3.308-5 0-5h-20.862v-15.125c0-3.303-5-3.308-5 0v37.522c0 18.557 28.362 19.224 28.362-.62 0-3.303-5-3.308-5 0 0 13.213-18.362 12.572-18.362.62v-17.397z"/><path d="m65.709 25.134v24.602 24.602c0 1.381 1.119 2.5 2.5 2.5h11.682c8.161 0 14.801-6.64 14.801-14.801s-6.64-14.801-14.801-14.801h-9.182v-22.102c0-3.303-5-3.309-5 0zm14.182 27.101c5.404 0 9.801 4.396 9.801 9.801s-4.396 9.801-9.801 9.801h-9.182v-19.602z"/><path d="m105.876 49.735v24.602c0 3.303 5 3.308 5 0v-24.602c0-3.303-5-3.308-5 0z"/><path d="m110.876 33.8c0-3.303-5-3.308-5 0v4.458c0 3.303 5 3.308 5 0z"/><path d="m169.853 45.259h17.938c3.303 0 3.308-5 0-5h-17.938c-13.735 0-13.74 20.789 0 20.789h10.044c7.129 0 7.129 10.79 0 10.79h-17.938c-3.303 0-3.308 5 0 5h17.938c13.735 0 13.74-20.79 0-20.79h-10.044c-7.129 0-7.13-10.789 0-10.789z"/><path d="m166.55 6.42c0-1.37-1.12-2.49-2.49-2.49-1.38 0-2.51 1.12-2.51 2.49 0 1.38 1.13 2.5 2.51 2.5 1.37 0 2.49-1.12 2.49-2.5z"/></g></svg>