<?xml version="1.0" encoding="iso-8859-1"?>
<!-- Generator: Adobe Illustrator 19.0.0, SVG Export Plug-In . SVG Version: 6.00 Build 0)  -->
<svg version="1.1" id="Capa_1" xmlns="http://www.w3.org/2000/svg" xmlns:xlink="http://www.w3.org/1999/xlink" x="0px" y="0px"
	 viewBox="0 0 351.469 351.469" style="enable-background:new 0 0 351.469 351.469;" xml:space="preserve">
<path style="fill:#FFED26;" d="M20,70.814v252.002c42.291,0,193.586,0,256.004,0c13.254,0,23.996-10.746,23.996-24V102.752
	l-137.332,137.33c-4.35,4.352-10.119,6.566-15.682,6.566c-4.883,0-9.605-1.707-13.072-5.172l-60.613-60.617
	c-7.625-7.627-7.445-20.76,0.391-28.678l21.712-22.547c3.814-3.867,9.209-6.82,14.424-6.82c0.014,0,0.025,0,0.039,0
	c5.369,0,10.551,2.727,14.23,6.406l28.387,28.691c1.781,1.777,4.949,2.395,6.287,1.063l82.4-82.324
	c1.563-1.563,4.094-1.523,5.656,0.039c0.004,0.004,0.008,0.016,0.012,0.02l10.328-10.328c-1.559-1.563-1.559-4.09,0.004-5.652
	l17.914-17.914H48C32.535,42.814,20,55.349,20,70.814z M196,78.814c4.418,0,8,2.688,8,6s-3.582,6-8,6s-8-2.688-8-6
	S191.582,78.814,196,78.814z M180,58.814c4.418,0,8,3.582,8,8s-3.582,8-8,8s-8-3.582-8-8S175.582,58.814,180,58.814z M176,86.814
	c0,10.84-9.16,20-20,20c-10.842,0-20-9.16-20-20c0-2.211,1.791-4,4-4h32C174.211,82.814,176,84.603,176,86.814z M132,58.814
	c4.418,0,8,3.582,8,8s-3.582,8-8,8s-8-3.582-8-8S127.582,58.814,132,58.814z M116,78.814c4.418,0,8,2.688,8,6s-3.582,6-8,6
	s-8-2.688-8-6S111.582,78.814,116,78.814z M212,274.816c0-6.617,5.383-12,12-12h24c0.73,0,1.434,0.09,2.129,0.215l13.043-13.043
	c1.563-1.563,4.094-1.563,5.656,0s1.563,4.094,0,5.656l-11.598,11.598c1.703,2.074,2.77,4.688,2.77,7.574v24c0,6.617-5.383,12-12,12
	h-24c-6.617,0-12-5.383-12-12V274.816z M132,274.816c0-6.617,5.383-12,12-12h24c1.848,0,3.578,0.453,5.141,1.203l14.031-14.031
	c1.563-1.563,4.094-1.563,5.656,0s1.563,4.094,0,5.656l-14.031,14.031c0.75,1.563,1.203,3.293,1.203,5.141v24
	c0,6.617-5.383,12-12,12h-24c-6.617,0-12-5.383-12-12L132,274.816L132,274.816z M88,262.816c1.848,0,3.576,0.453,5.141,1.203
	l14.031-14.031c1.563-1.563,4.094-1.563,5.656,0s1.563,4.094,0,5.656l-14.031,14.031c0.75,1.563,1.203,3.293,1.203,5.141v24
	c0,6.617-5.383,12-12,12H64c-6.617,0-12-5.383-12-12v-24c0-6.617,5.383-12,12-12H88z M64,58.814c0,2.211-1.791,4-4,4H48
	c-4.412,0-8,3.59-8,8v28c0,2.211-1.791,4-4,4s-4-1.789-4-4v-28c0-8.824,7.178-16,16-16h12C62.209,54.814,64,56.603,64,58.814z"/>
<path style="fill:#FFFFFF;" d="M76,30.814H44c-19.85,0-36,16.148-36,36v232.002c0,9.227,3.518,17.625,9.244,24
	c0.861,0,1.775,0,2.756,0V70.814c0-15.465,12.535-28,28-28h227.086l10.629-10.629c-3.094-0.871-6.344-1.371-9.715-1.371H116
	c-2.209,0-4-1.789-4-4h-8c0,2.211-1.791,4-4,4h-8c-2.209,0-4-1.789-4-4h-8C80,29.025,78.209,30.814,76,30.814z"/>
<path style="fill:#FFAE21;" d="M312,162.814V90.751l-12,12v196.064c0,13.254-10.742,24-23.996,24c-62.418,0-213.713,0-256.004,0
	c-0.98,0-1.895,0-2.756,0c6.596,7.344,16.131,12,26.756,12h44c2.209,0,4,1.789,4,4h8c0-2.211,1.791-4,4-4h172
	c19.852,0,36-16.148,36-36v-120c0-2.213,1.789-4.002,4-4.002v-8C313.789,166.814,312,165.025,312,162.814z"/>
<path d="M312,178.816v120c0,19.852-16.148,36-36,36H104c-2.209,0-4,1.789-4,4s1.791,4,4,4h172c24.262,0,44-19.738,44-44v-120
	c0-2.213-1.789-4.002-4-4.002S312,176.603,312,178.816z"/>
<path d="M88,334.816H44c-10.625,0-20.16-4.656-26.756-12c-5.727-6.375-9.244-14.773-9.244-24V66.814c0-19.852,16.15-36,36-36h32
	c2.209,0,4-1.789,4-4s-1.791-4-4-4H44c-24.262,0-44,19.738-44,44v232.443c0,0.063,0,0.129,0,0.191c0,23.969,19.949,43.367,44,43.367
	h44c2.209,0,4-1.789,4-4S90.209,334.816,88,334.816z"/>
<path d="M92,30.814h8c2.209,0,4-1.789,4-4s-1.791-4-4-4h-8c-2.209,0-4,1.789-4,4S89.791,30.814,92,30.814z"/>
<path style="fill:#FFFFFF;" d="M32,70.814v28c0,2.211,1.791,4,4,4s4-1.789,4-4v-28c0-4.41,3.588-8,8-8h12c2.209,0,4-1.789,4-4
	s-1.791-4-4-4H48C39.177,54.814,32,61.99,32,70.814z"/>
<path style="fill:#A5E846;" d="M167.39,178.789c-6.25,6.246-16.379,6.246-22.629,0l-43.592-43.596
	c-0.023,0.023-0.053,0.043-0.076,0.066l-21.717,22.238c-4.801,4.855-4.994,12.977-0.42,17.551l60.613,60.693
	c4.801,4.797,12.891,3.188,17.441-1.355L339.569,51.849c4.875-4.879,5.242-12.434,0.82-16.863l-14.605-14.598L167.39,178.789z"/>
<path style="fill:#CDFF85;" d="M246.828,82.365l-82.402,82.41c-4.924,4.922-13.221,3.48-17.598-0.902l-28.387-29
	c-2.191-2.191-5.313-4.059-8.566-4.059c-0.008,0-0.016,0-0.023,0c-3.049,0-6.365,2.055-8.682,4.379l43.592,43.596
	c6.25,6.246,16.379,6.246,22.629,0l158.395-158.4l-0.77-0.77c-5.008-5.012-12.27-3.156-16.559,1.133l-45.629,45.633
	c-1.563,1.563-4.094,1.563-5.656,0c0,0,0-0.004-0.004-0.004L246.84,76.709C248.386,78.271,248.386,80.806,246.828,82.365z"/>
<path d="M346.047,29.341l-15.375-15.375c-7.504-7.504-19.742-7-27.871,1.133l-10.777,10.777c-4.973-1.953-10.367-3.063-16.023-3.063
	h-160c-2.209,0-4,1.789-4,4s1.791,4,4,4h160c3.371,0,6.621,0.5,9.715,1.371l-10.629,10.629l-17.914,17.914
	c-1.563,1.563-1.563,4.09-0.004,5.652c0.004,0,0.004,0.004,0.004,0.004c1.563,1.563,4.094,1.563,5.656,0l45.629-45.633
	c4.289-4.289,11.551-6.145,16.559-1.133l0.77,0.77l14.605,14.598c4.422,4.43,4.055,11.984-0.82,16.863L157.011,234.386
	c-4.551,4.543-12.641,6.152-17.441,1.355l-60.613-60.693c-4.574-4.574-4.381-12.695,0.42-17.551l21.717-22.238
	c0.023-0.023,0.053-0.043,0.076-0.066c2.316-2.324,5.633-4.379,8.682-4.379c0.008,0,0.016,0,0.023,0
	c3.254,0,6.375,1.867,8.566,4.059l28.387,29c4.377,4.383,12.674,5.824,17.598,0.902l82.402-82.41
	c1.559-1.559,1.559-4.094,0.012-5.656c-0.004-0.004-0.008-0.016-0.012-0.02c-1.563-1.563-4.094-1.602-5.656-0.039l-82.4,82.324
	c-1.338,1.332-4.506,0.715-6.287-1.063l-28.387-28.691c-3.68-3.68-8.861-6.406-14.23-6.406c-0.014,0-0.025,0-0.039,0
	c-5.215,0-10.609,2.953-14.424,6.82l-21.713,22.547c-7.836,7.918-8.016,21.051-0.391,28.678l60.613,60.617
	c3.467,3.465,8.189,5.172,13.072,5.172c5.563,0,11.332-2.215,15.682-6.566L300,102.752l12-12v72.063c0,2.211,1.789,4,4,4
	s4-1.789,4-4V82.752l25.227-25.227C353.218,49.529,353.586,36.884,346.047,29.341z"/>
<path style="fill:#A5E846;" d="M76,290.816c-1.023,0-2.047-0.391-2.828-1.172c-1.563-1.563-1.563-4.094,0-5.656l13.172-13.172H64
	c-2.205,0-4,1.793-4,4v24c0,2.207,1.795,4,4,4h24c2.205,0,4-1.793,4-4v-22.344l-13.172,13.172
	C78.047,290.425,77.023,290.816,76,290.816z"/>
<path d="M52,274.816v24c0,6.617,5.383,12,12,12h24c6.617,0,12-5.383,12-12v-24c0-1.848-0.453-3.578-1.203-5.141L92,276.472v22.344
	c0,2.207-1.795,4-4,4H64c-2.205,0-4-1.793-4-4v-24c0-2.207,1.795-4,4-4h22.344l6.797-6.797c-1.564-0.75-3.293-1.203-5.141-1.203H64
	C57.382,262.816,52,268.199,52,274.816z"/>
<path style="fill:#FFFFFF;" d="M156,290.816c-1.023,0-2.047-0.391-2.828-1.172c-1.563-1.563-1.563-4.094,0-5.656l13.172-13.172H144
	c-2.205,0-4,1.793-4,4v24c0,2.207,1.795,4,4,4h24c2.207,0,4-1.793,4-4v-22.344l-13.172,13.172
	C158.047,290.425,157.023,290.816,156,290.816z"/>
<path d="M144,310.816h24c6.617,0,12-5.383,12-12v-24c0-1.848-0.453-3.578-1.203-5.141L172,276.472v22.344c0,2.207-1.793,4-4,4h-24
	c-2.205,0-4-1.793-4-4v-24c0-2.207,1.795-4,4-4h22.344l6.797-6.797c-1.563-0.75-3.293-1.203-5.141-1.203h-24
	c-6.617,0-12,5.383-12,12v24C132,305.433,137.382,310.816,144,310.816z"/>
<path style="fill:#43B2DE;" d="M232,290.816c-1.023,0-2.047-0.391-2.828-1.172c-1.563-1.563-1.563-4.094,0-5.656l13.172-13.172H224
	c-2.207,0-4,1.793-4,4v24c0,2.207,1.793,4,4,4h24c2.207,0,4-1.793,4-4v-24c0-0.676-0.211-1.281-0.504-1.84l-16.668,16.668
	C234.047,290.425,233.023,290.816,232,290.816z"/>
<path d="M224,310.816h24c6.617,0,12-5.383,12-12v-24c0-2.887-1.066-5.5-2.77-7.574l-5.734,5.734c0.293,0.559,0.504,1.164,0.504,1.84
	v24c0,2.207-1.793,4-4,4h-24c-2.207,0-4-1.793-4-4v-24c0-2.207,1.793-4,4-4h18.344l7.785-7.785
	c-0.695-0.125-1.398-0.215-2.129-0.215h-24c-6.617,0-12,5.383-12,12v24C212,305.433,217.382,310.816,224,310.816z"/>
<circle cx="132.004" cy="66.814" r="8"/>
<circle cx="180.004" cy="66.814" r="8"/>
<g>
	<ellipse style="fill:#FFA9A6;" cx="116.004" cy="84.814" rx="8" ry="6"/>
	<ellipse style="fill:#FFA9A6;" cx="196.004" cy="84.814" rx="8" ry="6"/>
</g>
<path style="fill:#EF9BAC;" d="M144.742,90.814c1.727,4.563,6.252,8,11.258,8c5.008,0,9.531-3.438,11.258-8H144.742z"/>
<path d="M136,86.814c0,10.84,9.158,20,20,20c10.84,0,20-9.16,20-20c0-2.211-1.789-4-4-4h-32C137.791,82.814,136,84.603,136,86.814z
	 M156,98.814c-5.006,0-9.531-3.438-11.258-8h22.516C165.531,95.377,161.007,98.814,156,98.814z"/>
<g>
	<path style="fill:#FF4776;" d="M86.343,270.816l-13.172,13.172c-1.563,1.563-1.563,4.094,0,5.656
		c0.781,0.781,1.805,1.172,2.828,1.172s2.047-0.391,2.828-1.172l13.172-13.172l6.797-6.797l14.031-14.031
		c1.563-1.563,1.563-4.094,0-5.656s-4.094-1.563-5.656,0L93.14,264.019L86.343,270.816z"/>
	<path style="fill:#FF4776;" d="M166.343,270.816l-13.172,13.172c-1.563,1.563-1.563,4.094,0,5.656
		c0.781,0.781,1.805,1.172,2.828,1.172s2.047-0.391,2.828-1.172l13.172-13.172l6.797-6.797l14.031-14.031
		c1.563-1.563,1.563-4.094,0-5.656s-4.094-1.563-5.656,0l-14.031,14.031L166.343,270.816z"/>
	<path style="fill:#FF4776;" d="M242.343,270.816l-13.172,13.172c-1.563,1.563-1.563,4.094,0,5.656
		c0.781,0.781,1.805,1.172,2.828,1.172s2.047-0.391,2.828-1.172l16.668-16.668l5.734-5.734l11.598-11.598
		c1.563-1.563,1.563-4.094,0-5.656s-4.094-1.563-5.656,0l-13.043,13.043L242.343,270.816z"/>
</g>
<g>
</g>
<g>
</g>
<g>
</g>
<g>
</g>
<g>
</g>
<g>
</g>
<g>
</g>
<g>
</g>
<g>
</g>
<g>
</g>
<g>
</g>
<g>
</g>
<g>
</g>
<g>
</g>
<g>
</g>
</svg>
