<svg height="512" viewBox="0 0 32 32" width="512" xmlns="http://www.w3.org/2000/svg"><g id="_x30_5"><path d="m29 17h-2c-.5527344 0-1 .4477539-1 1s.4472656 1 1 1h1v9h-1c-.5527344 0-1 .4477539-1 1s.4472656 1 1 1h2c.5527344 0 1-.4477539 1-1v-11c0-.5522461-.4472656-1-1-1z"/><path d="m5 28h-1v-9h1c.5527344 0 1-.4477539 1-1s-.4472656-1-1-1h-2c-.5527344 0-1 .4477539-1 1v11c0 .5522461.4472656 1 1 1h2c.5527344 0 1-.4477539 1-1s-.4472656-1-1-1z"/><path d="m27 26v-5c0-.5522461-.4472656-1-1-1h-20c-.5527344 0-1 .4477539-1 1v5c0 .5522461.4472656 1 1 1h20c.5527344 0 1-.4477539 1-1zm-10-4h3v3h-3zm-2 3h-3v-3h3zm-8-3h3v3h-3zm18 3h-3v-3h3z"/><path d="m14.7070313 5.2929688c-.390625-.390625-1.0234375-.390625-1.4140625 0l-2 2c-.390625.390625-.390625 1.0234375 0 1.4140625l2 2c.1953125.1953125.4511718.2929687.7070312.2929687s.5117188-.0976563.7070313-.2929688c.390625-.390625.390625-1.0234375 0-1.4140625l-1.2929688-1.2929687 1.2929688-1.2929688c.390625-.3906249.390625-1.0234374 0-1.4140624z"/><path d="m18.7070313 5.2929688c-.390625-.390625-1.0234375-.390625-1.4140625 0s-.390625 1.0234375 0 1.4140625l1.2929687 1.2929687-1.2929688 1.2929688c-.390625.390625-.390625 1.0234375 0 1.4140625.1953126.1953125.4511719.2929687.7070313.2929687s.5117188-.0976563.7070313-.2929688l2-2c.390625-.390625.390625-1.0234375 0-1.4140625z"/><path d="m8 16h16c1.6542969 0 3-1.3457031 3-3 0-.5522461-.4472656-1-1-1h-1v-7c0-1.6542969-1.3457031-3-3-3h-12c-1.6542969 0-3 1.3457031-3 3v7h-1c-.5527344 0-1 .4477539-1 1 0 1.6542969 1.3457031 3 3 3zm1-11c0-.5512695.4482422-1 1-1h12c.5517578 0 1 .4487305 1 1v7h-14z"/></g></svg>