<svg id="Layer_1" height="512" viewBox="0 0 48 48" width="512" xmlns="http://www.w3.org/2000/svg" data-name="Layer 1"><path d="m42.814 32.013c0 11.848-10.345 14.622-12.972 15.135-.206.041-.32.066-.517.089-.079.009-.267.013-.385.013l-9.54-.007c-.121 0-.522-.016-.542-.017-.391-.029-1.171-.1-2.17-.275-3.768-.651-10.648-2.706-11.398-9.087-.627-5.34 1.655-8.006 4.521-11.57 2.31-2.873.5-7.124.486-7.164.06.032 3.893 2.14 4.808 3.944a13.608 13.608 0 0 1 1.12 2.692c-.018-.147-.82-6.762 2.6-11.21 3.459-4.5 4.185-5.879 4.25-8.18a15.373 15.373 0 0 0 -1.507-5.626 26.882 26.882 0 0 1 8.3 8.3 17.305 17.305 0 0 1 2.658 8.741 9.062 9.062 0 0 0 2.055-3.135 10.439 10.439 0 0 0 .222-4.141l2.114 3.6c2.373 4.347 5.897 11.817 5.897 17.898z" fill="#d75c1e" fill-rule="evenodd"/><path d="m42.814 32.013c0-6.081-3.524-13.551-5.9-17.893l-2.114-3.6a10.439 10.439 0 0 1 -.222 4.141 9.035 9.035 0 0 1 -2.055 3.135 17.3 17.3 0 0 0 -2.658-8.74 31.152 31.152 0 0 0 -2.865-3.696c-.218 1.894-1.14 3.436-4.2 7.411-3.422 4.448-2.619 11.063-2.6 11.21a13.7 13.7 0 0 0 -1.119-2.693 8.068 8.068 0 0 0 -2.337-2.357 19.851 19.851 0 0 0 -.522 6.835 13.7 13.7 0 0 0 -1.119-2.693 3.379 3.379 0 0 0 -.345-.533 5.14 5.14 0 0 1 -.972 1.969c-2.866 3.564-5.148 6.23-4.521 11.57.75 6.381 7.629 8.437 11.4 9.087a21.008 21.008 0 0 0 2.444.292l10.108.007h.006l.128-.019a17.009 17.009 0 0 0 2.469-.6c3.463-2.086 6.994-5.911 6.994-12.833z" fill="#f60" fill-rule="evenodd"/><path d="m36.916 14.12-2.114-3.6a10.439 10.439 0 0 1 -.222 4.141 9.062 9.062 0 0 1 -2.055 3.135 17.305 17.305 0 0 0 -2.658-8.741 26.882 26.882 0 0 0 -8.3-8.3 15.373 15.373 0 0 1 1.508 5.626c-.065 2.3-.791 3.684-4.25 8.18-3.421 4.448-2.619 11.063-2.6 11.21a13.608 13.608 0 0 0 -1.12-2.692c-.915-1.8-4.748-3.912-4.808-3.944.017.04 1.824 4.291-.486 7.164-2.866 3.564-5.148 6.23-4.521 11.57.75 6.381 7.63 8.437 11.4 9.087 1 .172 1.779.246 2.17.275a4 4 0 0 1 -3.224-2.165 11.976 11.976 0 0 1 -.539-1.2 5.755 5.755 0 0 1 -.31-1.231c-.369-2.619 1.226-5.119 2.346-6.4 2.668-2.866 4.842-4.414 5.534-7.642a14.967 14.967 0 0 0 .128-4.216 13.208 13.208 0 0 1 4.084 4.085 8.527 8.527 0 0 1 1.308 4.3 4.46 4.46 0 0 0 1.013-1.546 5.142 5.142 0 0 0 .109-2.038s3.948 6.064 3.942 10.575c-.008 5.906-3.492 7.339-3.871 7.477.166-.021.278-.045.465-.082 2.627-.513 12.972-3.287 12.972-15.135-.003-6.081-3.527-13.551-5.901-17.893z" fill="none"/><path d="m33.248 39.753c.006-4.511-3.942-10.575-3.942-10.575a5.142 5.142 0 0 1 -.109 2.038 4.46 4.46 0 0 1 -1.011 1.542 8.527 8.527 0 0 0 -1.308-4.3 13.208 13.208 0 0 0 -4.084-4.085 14.967 14.967 0 0 1 -.128 4.216c-.692 3.228-2.866 4.776-5.534 7.642-1.12 1.283-2.715 3.783-2.346 6.4a5.755 5.755 0 0 0 .31 1.231 11.976 11.976 0 0 0 .539 1.2 4 4 0 0 0 3.224 2.165c.02 0 .421.017.542.017l9.539.007c.118 0 .306 0 .385-.013l.052-.007c.379-.139 3.863-1.572 3.871-7.478z" fill="#ff8300"/><path d="m29.306 29.178a5.138 5.138 0 0 1 -.109 2.037 4.458 4.458 0 0 1 -1.011 1.543 8.529 8.529 0 0 0 -1.308-4.3c-.164-.247-.33-.482-.5-.7-.885 2.611-2.88 4.122-5.272 6.692-1.12 1.284-2.715 3.783-2.346 6.4.009.065.03.167.063.3a5.7 5.7 0 0 0 5.44 4.268l2.264.046h.916a5.749 5.749 0 0 0 5.8-5.624v-.083c.011-4.515-3.937-10.579-3.937-10.579z" fill="#ffa511" fill-rule="evenodd"/></svg>