<svg id="Layer_1" enable-background="new 0 0 496.002 496.002" height="512" viewBox="0 0 496.002 496.002" width="512" xmlns="http://www.w3.org/2000/svg"><path d="m466.001 180c-4.418 0-8 3.582-8 8v109.911l-45.385-109.215 28.707-11.852c4.084-1.686 6.028-6.363 4.342-10.447-1.686-4.085-6.364-6.028-10.447-4.342l-28.741 11.865-45.814-110.244 78.621 78.621c1.563 1.562 3.609 2.343 5.657 2.343 7.065 0 10.711-8.602 5.657-13.657l-85.58-85.58c-4.678-4.676-12.669-1.952-13.572 4.552-6.343-1.579-11.838 4.752-9.314 10.826l49.553 119.247-51.205 21.139-45.645-45.645 39.109-94.728c1.687-4.083-.258-8.761-4.342-10.447-4.08-1.685-8.761.257-10.447 4.342l-36.574 88.579-57.628-57.628 88.406-36.732c4.08-1.695 6.014-6.377 4.318-10.457-1.695-4.081-6.38-6.014-10.457-4.318l-94.503 39.271-27.85-27.85c-3.125-3.123-8.189-3.123-11.314 0-3.124 3.125-3.124 8.189 0 11.314l23.179 23.179-61.487 25.551 18.624-44.817c2.527-6.083-2.982-12.403-9.314-10.826-.903-6.5-8.891-9.23-13.572-4.552l-85.58 85.58c-4.67 4.672-1.965 12.668 4.552 13.572-1.578 6.33 4.741 11.842 10.826 9.314l44.818-18.626-38.194 91.911-18.497-44.512c-1.695-4.081-6.381-6.014-10.457-4.318-4.08 1.695-6.014 6.377-4.318 10.457l24.609 59.219-24.609 59.221c-1.695 4.08.238 8.762 4.318 10.457 4.096 1.703 8.769-.255 10.457-4.318l18.497-44.512 15.981 38.456-28.708 11.852c-8.092 3.34-5.628 15.396 3.056 15.396 2.188 0 .777.331 31.792-12.473l45.813 110.246-78.621-78.621c-3.125-3.123-8.189-3.123-11.314 0-3.124 3.125-3.124 8.189 0 11.314l85.58 85.58c4.63 4.628 12.666 2.03 13.573-4.561 6.438 1.602 11.807-4.814 9.313-10.817l-49.554-119.247 128.944-53.232-71.203 172.476c-2.179 5.276 1.724 11.055 7.392 11.055 3.143 0 6.124-1.864 7.397-4.949l77.281-187.196 82.59-34.096 102.417 102.417c4.631 4.628 12.521 2.012 13.548-4.383 3.559.826 6.904-.798 8.617-3.603 5.257 3.832 12.702.086 12.702-6.462v-120c0-4.418-3.582-8-8-8zm-402.324-44.662 71.662-71.662-21.037 50.625zm34.498 165.86-22.106-53.198 50.475-121.463 82.425-34.256 67.001 67.001-34.096 82.592zm164.566-67.938 25.482-61.723 36.241 36.241zm89.992-19.842 45.093-18.616 45.299 109.008z" fill="#42434d"/><path d="m435.2 342.143-252.56 104.95c-6.038 2.509-6.652 10.809-1.098 14.2-3.837 5.255-.092 12.707 6.458 12.707h120c4.418 0 8-3.582 8-8s-3.582-8-8-8h-109.91l243.251-101.082c4.08-1.695 6.013-6.378 4.317-10.458s-6.378-6.012-10.458-4.317z" fill="#42434d"/><circle cx="338.001" cy="466" fill="#fedf84" r="30"/><path d="m368.001 466c0 27.042-33.057 40.092-51.57 20.83 26.042 3.483 46.231-22.135 36.24-46.99 9.15 5.13 15.33 14.92 15.33 26.16z" fill="#fed66b"/><circle cx="158.001" cy="466" fill="#fedf84" r="30"/><path d="m188.001 466c0 27.07-33.069 40.079-51.57 20.83 26.042 3.483 46.231-22.135 36.24-46.99 9.15 5.13 15.33 14.92 15.33 26.16z" fill="#fed66b"/><circle cx="338.001" cy="30" fill="#fedf84" r="30"/><path d="m368.001 30c0 27.042-33.057 40.092-51.57 20.83 26.042 3.483 46.231-22.135 36.24-46.99 9.15 5.13 15.33 14.92 15.33 26.16z" fill="#fed66b"/><circle cx="158.001" cy="30" fill="#fedf84" r="30"/><path d="m188.001 30c0 27.07-33.069 40.079-51.57 20.83 26.042 3.483 46.231-22.135 36.24-46.99 9.15 5.13 15.33 14.92 15.33 26.16z" fill="#fed66b"/><circle cx="466.001" cy="338" fill="#fedf84" r="30"/><path d="m496.001 338c0 27.07-33.069 40.079-51.57 20.83 26.042 3.483 46.231-22.135 36.24-46.99 9.15 5.13 15.33 14.92 15.33 26.16z" fill="#fed66b"/><circle cx="466.001" cy="158" fill="#fedf84" r="30"/><path d="m496.001 158c0 27.042-33.057 40.092-51.57 20.83 26.042 3.483 46.231-22.135 36.24-46.99 9.15 5.13 15.33 14.92 15.33 26.16z" fill="#fed66b"/><circle cx="30.001" cy="158" fill="#fedf84" r="30"/><path d="m60.001 158c0 27.07-33.069 40.079-51.57 20.83 26.042 3.483 46.231-22.135 36.24-46.99 9.15 5.13 15.33 14.92 15.33 26.16z" fill="#fed66b"/><circle cx="30.001" cy="338" fill="#fedf84" r="30"/><path d="m60.001 338c0 27.07-33.069 40.079-51.57 20.83 26.042 3.483 46.231-22.135 36.24-46.99 9.15 5.13 15.33 14.92 15.33 26.16z" fill="#fed66b"/></svg>