<svg id="Flat" height="512" viewBox="0 0 512 512" width="512" xmlns="http://www.w3.org/2000/svg"><path d="m488 304c0 128.13-103.87 184-232 184s-232-55.87-232-184 103.87-280 232-280 232 151.87 232 280z" fill="#ffc70d"/><path d="m256 456c-122.746 0-223.161-51.321-231.389-168.276-.361 5.455-.611 10.892-.611 16.276 0 128.13 103.87 184 232 184s232-55.87 232-184c0-5.384-.25-10.821-.611-16.276-8.228 116.955-108.643 168.276-231.389 168.276z" fill="#f89f00"/><path d="m192 172a8 8 0 0 0 16 0c0-13.778-13.532-24.923-32-27.452v-8.548a8 8 0 0 0 -16 0v8.548c-18.468 2.529-32 13.674-32 27.452 0 11.833 14.364 18.469 32 25.449v25.741c-9.507-1.846-16-6.7-16-11.19a8 8 0 0 0 -16 0c0 13.778 13.532 24.923 32 27.452v8.548a8 8 0 0 0 16 0v-8.548c18.468-2.529 32-13.674 32-27.452 0-11.833-14.364-18.469-32-25.449v-25.741c9.506 1.846 16 6.703 16 11.19zm-47.961-.594c.534-4.323 6.867-8.843 15.961-10.606v19.366c-7.166-3.009-14.156-6.334-15.961-8.76zm47.922 41.188c-.534 4.323-6.867 8.844-15.961 10.607v-19.367c7.166 3.009 14.156 6.334 15.961 8.76z" fill="#ba7700"/><path d="m352 186.551v-25.741c9.506 1.846 16 6.7 16 11.19a8 8 0 0 0 16 0c0-13.778-13.532-24.923-32-27.452v-8.548a8 8 0 0 0 -16 0v8.548c-18.468 2.529-32 13.674-32 27.452 0 11.833 14.364 18.469 32 25.449v25.741c-9.507-1.846-16-6.7-16-11.19a8 8 0 0 0 -16 0c0 13.778 13.532 24.923 32 27.452v8.548a8 8 0 0 0 16 0v-8.548c18.468-2.529 32-13.674 32-27.452 0-11.833-14.364-18.469-32-25.449zm-31.961-15.145c.534-4.323 6.867-8.843 15.961-10.606v19.366c-7.166-3.009-14.156-6.334-15.961-8.76zm31.961 51.794v-19.366c7.166 3.009 14.156 6.334 15.961 8.76-.534 4.323-6.867 8.844-15.961 10.606z" fill="#ba7700"/><path d="m304 264a48 48 0 0 1 -96 0z" fill="#483d23"/></svg>