<svg id="Layer_1" enable-background="new 0 0 512.002 512.002" height="512" viewBox="0 0 512.002 512.002" width="512" xmlns="http://www.w3.org/2000/svg"><g><g clip-rule="evenodd" fill-rule="evenodd"><path d="m55 52.5h45v45h-45z" fill="#fff"/><path d="m100 97.5h-45v-45h45zm212.002-87.5h-282.002c-11 0-20 9-20 20v90c0 11 9 20 20 20h282.002c11 0 20-9 20-20v-90c.001-11-8.999-20-20-20z" fill="#ff7d97"/><path d="m402.002 191.001h-282.002c-11 0-20 9-20 20v90c0 11 9 20 20 20h282.002c11 0 20-9 20-20v-90c.001-11-8.999-20-20-20zm-257.002 42.5h45v45h-45z" fill="#a0e5a5"/><path d="m145 233.501h45v45h-45z" fill="#fff"/><path d="m55 414.502h45v45h-45z" fill="#fff"/><path d="m100 414.502v45h-45v-45zm212.002-42.5h-282.002c-11 0-20 9-20 20v90c0 11 9 20 20 20h282.002c11 0 20-9 20-20v-90c.001-11-8.999-20-20-20z" fill="#ffea60"/></g><g><path d="m30 150h282.002c16.542 0 30-13.458 30-30v-90c0-16.542-13.458-30-30-30h-282.002c-16.542 0-30 13.458-30 30v90c0 16.542 13.458 30 30 30zm-10-120c0-5.514 4.486-10 10-10h282.002c5.514 0 10 4.486 10 10v90c0 5.514-4.486 10-10 10h-282.002c-5.514 0-10-4.486-10-10z"/><path d="m312.002 362.002h-282.002c-16.542 0-30 13.458-30 30v90c0 16.542 13.458 30 30 30h282.002c16.542 0 30-13.458 30-30v-90c0-16.542-13.458-30-30-30zm10 120c0 5.514-4.486 10-10 10h-282.002c-5.514 0-10-4.486-10-10v-90c0-5.514 4.486-10 10-10h282.002c5.514 0 10 4.486 10 10z"/><path d="m482.002 65h-85.856l12.93-12.93c3.905-3.905 3.905-10.237 0-14.143-3.905-3.904-10.237-3.904-14.143 0l-30 30.001c-3.873 3.725-3.873 10.418 0 14.143l30 30c3.906 3.905 10.237 3.905 14.143 0 3.905-3.905 3.905-10.237 0-14.143l-12.93-12.928h85.856c5.514 0 10 4.486 10 10v141.001c0 5.514-4.486 10-10 10h-50v-35c0-16.542-13.458-30-30-30h-282.002c-16.542 0-30 13.458-30 30v90c0 16.542 13.458 30 30 30h282.002c16.542 0 30-13.458 30-30v-35h50c16.542 0 30-13.458 30-30v-141.001c0-16.542-13.458-30-30-30zm-70 236.001c0 5.514-4.486 10-10 10h-282.002c-5.514 0-10-4.486-10-10v-90c0-5.514 4.486-10 10-10h282.002c5.514 0 10 4.486 10 10z"/><path d="m145 62.5h142.002c13.254-.492 13.244-19.513 0-20h-142.002c-13.254.492-13.244 19.513 0 20z"/><path d="m55 107.5h45c5.523 0 10-4.478 10-10v-45c0-5.522-4.477-10-10-10h-45c-5.523 0-10 4.478-10 10v45c0 5.522 4.477 10 10 10zm10-45h25v25h-25z"/><path d="m287.002 87.499h-97.006c-13.254.492-13.244 19.513 0 20h97.006c13.254-.492 13.244-19.513 0-20z"/><path d="m377.002 223.501h-142.002c-13.254.492-13.244 19.513 0 20h142.002c13.254-.492 13.244-19.513 0-20z"/><path d="m190 223.501h-45c-5.523 0-10 4.478-10 10v45c0 5.522 4.477 10 10 10h45c5.523 0 10-4.478 10-10v-45c0-5.522-4.477-10-10-10zm-10 45h-25v-25h25z"/><path d="m377.002 268.501h-142.002c-13.254.492-13.244 19.513 0 20h142.002c13.254-.492 13.244-19.513 0-20z"/><path d="m287.002 404.502h-142.002c-13.254.492-13.244 19.513 0 20h142.002c13.254-.492 13.244-19.513 0-20z"/><path d="m100 404.502h-45c-5.523 0-10 4.478-10 10v45c0 5.522 4.477 10 10 10h45c5.523 0 10-4.478 10-10v-45c0-5.523-4.477-10-10-10zm-10 45h-25v-25h25z"/><path d="m287.002 449.502h-142.002c-13.254.492-13.244 19.513 0 20h142.002c13.254-.492 13.244-19.513 0-20z"/><path d="m145 107.499c13.254-.492 13.244-19.513 0-20h-.007c-13.254.494-13.236 19.515.007 20z"/></g></g></svg>