<?xml version="1.0" encoding="UTF-8" standalone="no"?>
<!-- Created with Inkscape (http://www.inkscape.org/) -->

<svg
   version="1.1"
   id="svg3648"
   xml:space="preserve"
   width="682.66669"
   height="682.66669"
   viewBox="0 0 682.66669 682.66669"
   xmlns="http://www.w3.org/2000/svg"
   xmlns:svg="http://www.w3.org/2000/svg"><defs
     id="defs3652"><clipPath
       clipPathUnits="userSpaceOnUse"
       id="clipPath3662"><path
         d="M 0,512 H 512 V 0 H 0 Z"
         id="path3660" /></clipPath></defs><g
     id="g3654"
     transform="matrix(1.3333333,0,0,-1.3333333,0,682.66667)"><g
       id="g3656"><g
         id="g3658"
         clip-path="url(#clipPath3662)"><g
           id="g3664"
           transform="translate(488.4443,18.1719)"><path
             d="m 0,0 h -464.889 c -8.93,0 -16.17,7.239 -16.17,16.17 V 374.023 H 16.17 V 16.17 C 16.17,7.239 8.931,0 0,0"
             style="fill:#fff3de;fill-opacity:1;fill-rule:nonzero;stroke:none"
             id="path3666" /></g><g
           id="g3668"
           transform="translate(504.6123,392.1973)"><path
             d="m 0,0 v -357.853 c 0,-8.932 -7.24,-16.171 -16.172,-16.171 H -36.2 c 8.932,0 16.173,7.239 16.173,16.171 l 0,357.853 z"
             style="fill:#ffe5c2;fill-opacity:1;fill-rule:nonzero;stroke:none"
             id="path3670" /></g><g
           id="g3672"
           transform="translate(504.6143,392.1953)"><path
             d="m 0,0 h -497.229 v 68.47 c 0,8.93 7.24,16.17 16.17,16.17 H -16.17 C -7.239,84.64 0,77.4 0,68.47 Z"
             style="fill:#f79595;fill-opacity:1;fill-rule:nonzero;stroke:none"
             id="path3674" /></g><g
           id="g3676"
           transform="translate(504.6123,460.6621)"><path
             d="M 0,0 V -68.465 H -20.027 V 0 c 0,8.933 -7.241,16.172 -16.173,16.172 h 20.028 C -7.24,16.172 0,8.933 0,0"
             style="fill:#f47c7c;fill-opacity:1;fill-rule:nonzero;stroke:none"
             id="path3678" /></g><g
           id="g3680"
           transform="translate(7.3857,453.5312)"><path
             d="m 0,0 v 7.134 c 0,8.93 7.239,16.17 16.17,16.17 h 464.889 c 8.93,0 16.17,-7.24 16.17,-16.17 v -68.47 H 0 v 27"
             style="fill:none;stroke:#000000;stroke-width:15;stroke-linecap:round;stroke-linejoin:round;stroke-miterlimit:10;stroke-dasharray:none;stroke-opacity:1"
             id="path3682" /></g><g
           id="g3684"
           transform="translate(77.2163,459.8408)"><path
             d="M 0,0 V 33.987"
             style="fill:none;stroke:#000000;stroke-width:15;stroke-linecap:round;stroke-linejoin:round;stroke-miterlimit:10;stroke-dasharray:none;stroke-opacity:1"
             id="path3686" /></g><g
           id="g3688"
           transform="translate(136.8115,459.8408)"><path
             d="M 0,0 V 33.987"
             style="fill:none;stroke:#000000;stroke-width:15;stroke-linecap:round;stroke-linejoin:round;stroke-miterlimit:10;stroke-dasharray:none;stroke-opacity:1"
             id="path3690" /></g><g
           id="g3692"
           transform="translate(196.4067,459.8408)"><path
             d="M 0,0 V 33.987"
             style="fill:none;stroke:#000000;stroke-width:15;stroke-linecap:round;stroke-linejoin:round;stroke-miterlimit:10;stroke-dasharray:none;stroke-opacity:1"
             id="path3694" /></g><g
           id="g3696"
           transform="translate(256.002,459.8408)"><path
             d="M 0,0 V 33.987"
             style="fill:none;stroke:#000000;stroke-width:15;stroke-linecap:round;stroke-linejoin:round;stroke-miterlimit:10;stroke-dasharray:none;stroke-opacity:1"
             id="path3698" /></g><g
           id="g3700"
           transform="translate(315.5967,459.8408)"><path
             d="M 0,0 V 33.987"
             style="fill:none;stroke:#000000;stroke-width:15;stroke-linecap:round;stroke-linejoin:round;stroke-miterlimit:10;stroke-dasharray:none;stroke-opacity:1"
             id="path3702" /></g><g
           id="g3704"
           transform="translate(375.1924,459.8408)"><path
             d="M 0,0 V 33.987"
             style="fill:none;stroke:#000000;stroke-width:15;stroke-linecap:round;stroke-linejoin:round;stroke-miterlimit:10;stroke-dasharray:none;stroke-opacity:1"
             id="path3706" /></g><g
           id="g3708"
           transform="translate(434.7871,459.8408)"><path
             d="M 0,0 V 33.987"
             style="fill:none;stroke:#000000;stroke-width:15;stroke-linecap:round;stroke-linejoin:round;stroke-miterlimit:10;stroke-dasharray:none;stroke-opacity:1"
             id="path3710" /></g><g
           id="g3712"
           transform="translate(488.4443,18.1719)"><path
             d="m 0,0 h -464.889 c -8.93,0 -16.17,7.239 -16.17,16.17 V 374.023 H 16.17 V 16.17 C 16.17,7.239 8.931,0 0,0 Z"
             style="fill:none;stroke:#000000;stroke-width:15;stroke-linecap:round;stroke-linejoin:round;stroke-miterlimit:10;stroke-dasharray:none;stroke-opacity:1"
             id="path3714" /></g><g
           id="g3716"
           transform="translate(109.4956,392.1953)"><path
             d="M 0,0 V -374.023"
             style="fill:none;stroke:#000000;stroke-width:15;stroke-linecap:round;stroke-linejoin:round;stroke-miterlimit:10;stroke-dasharray:none;stroke-opacity:1"
             id="path3718" /></g><g
           id="g3720"
           transform="translate(207.165,392.1953)"><path
             d="M 0,0 V -374.023"
             style="fill:none;stroke:#000000;stroke-width:15;stroke-linecap:round;stroke-linejoin:round;stroke-miterlimit:10;stroke-dasharray:none;stroke-opacity:1"
             id="path3722" /></g><g
           id="g3724"
           transform="translate(304.835,392.1953)"><path
             d="M 0,0 V -374.023"
             style="fill:none;stroke:#000000;stroke-width:15;stroke-linecap:round;stroke-linejoin:round;stroke-miterlimit:10;stroke-dasharray:none;stroke-opacity:1"
             id="path3726" /></g><g
           id="g3728"
           transform="translate(402.5039,392.1953)"><path
             d="M 0,0 V -374.023"
             style="fill:none;stroke:#000000;stroke-width:15;stroke-linecap:round;stroke-linejoin:round;stroke-miterlimit:10;stroke-dasharray:none;stroke-opacity:1"
             id="path3730" /></g><g
           id="g3732"
           transform="translate(48.918,346.4287)"><path
             d="M 0,0 H 23.486"
             style="fill:none;stroke:#000000;stroke-width:15;stroke-linecap:round;stroke-linejoin:round;stroke-miterlimit:10;stroke-dasharray:none;stroke-opacity:1"
             id="path3734" /></g><g
           id="g3736"
           transform="translate(146.5874,346.4287)"><path
             d="M 0,0 H 23.486"
             style="fill:none;stroke:#000000;stroke-width:15;stroke-linecap:round;stroke-linejoin:round;stroke-miterlimit:10;stroke-dasharray:none;stroke-opacity:1"
             id="path3738" /></g><g
           id="g3740"
           transform="translate(244.2568,346.4287)"><path
             d="M 0,0 H 23.486"
             style="fill:none;stroke:#000000;stroke-width:15;stroke-linecap:round;stroke-linejoin:round;stroke-miterlimit:10;stroke-dasharray:none;stroke-opacity:1"
             id="path3742" /></g><g
           id="g3744"
           transform="translate(341.9268,346.4287)"><path
             d="M 0,0 H 23.486"
             style="fill:none;stroke:#000000;stroke-width:15;stroke-linecap:round;stroke-linejoin:round;stroke-miterlimit:10;stroke-dasharray:none;stroke-opacity:1"
             id="path3746" /></g><g
           id="g3748"
           transform="translate(439.5957,346.4287)"><path
             d="M 0,0 H 23.486"
             style="fill:none;stroke:#000000;stroke-width:15;stroke-linecap:round;stroke-linejoin:round;stroke-miterlimit:10;stroke-dasharray:none;stroke-opacity:1"
             id="path3750" /></g><g
           id="g3752"
           transform="translate(207.165,278.2129)"><path
             d="m 0,0 h -155.9 c -1.296,0 -2.347,1.052 -2.347,2.348 v 30.739 c 0,1.296 1.051,2.347 2.347,2.347 l 155.9,0 z"
             style="fill:#c4e2ff;fill-opacity:1;fill-rule:nonzero;stroke:none"
             id="path3754" /></g><path
           d="m 207.163,278.211 h -21.219 v 35.438 h 21.219 z"
           style="fill:#b3dafe;fill-opacity:1;fill-rule:nonzero;stroke:none"
           id="path3756" /><g
           id="g3758"
           transform="translate(207.165,278.2129)"><path
             d="m 0,0 h -155.9 c -1.296,0 -2.347,1.052 -2.347,2.348 v 30.739 c 0,1.296 1.051,2.347 2.347,2.347 l 155.9,0 z"
             style="fill:none;stroke:#000000;stroke-width:15;stroke-linecap:round;stroke-linejoin:round;stroke-miterlimit:10;stroke-dasharray:none;stroke-opacity:1"
             id="path3760" /></g><g
           id="g3762"
           transform="translate(460.7344,242.7793)"><path
             d="M 0,0 H -351.239 V 35.434 H 0 c 1.297,0 2.348,-1.051 2.348,-2.348 V 2.348 C 2.348,1.051 1.297,0 0,0"
             style="fill:#c1e9af;fill-opacity:1;fill-rule:nonzero;stroke:none"
             id="path3764" /></g><g
           id="g3766"
           transform="translate(463.085,275.8672)"><path
             d="m 0,0 v -30.742 c 0,-1.292 -1.051,-2.343 -2.353,-2.343 h -21.219 c 1.292,0 2.343,1.051 2.343,2.343 V 0 c 0,1.292 -1.051,2.344 -2.343,2.344 H -2.353 C -1.051,2.344 0,1.292 0,0"
             style="fill:#ade194;fill-opacity:1;fill-rule:nonzero;stroke:none"
             id="path3768" /></g><g
           id="g3770"
           transform="translate(460.7344,242.7793)"><path
             d="M 0,0 H -351.239 V 35.434 H 0 c 1.297,0 2.348,-1.051 2.348,-2.348 V 2.348 C 2.348,1.051 1.297,0 0,0 Z"
             style="fill:none;stroke:#000000;stroke-width:15;stroke-linecap:round;stroke-linejoin:round;stroke-miterlimit:10;stroke-dasharray:none;stroke-opacity:1"
             id="path3772" /></g><path
           d="M 304.835,171.076 H 109.496 v 35.434 h 195.339 z"
           style="fill:#fee97d;fill-opacity:1;fill-rule:nonzero;stroke:none"
           id="path3774" /><path
           d="m 304.837,171.073 h -21.229 v 35.438 h 21.229 z"
           style="fill:#fed402;fill-opacity:1;fill-rule:nonzero;stroke:none"
           id="path3776" /><path
           d="M 304.835,171.076 H 109.496 v 35.434 h 195.339 z"
           style="fill:none;stroke:#000000;stroke-width:15;stroke-linecap:round;stroke-linejoin:round;stroke-miterlimit:10;stroke-dasharray:none;stroke-opacity:1"
           id="path3778" /><path
           d="m 304.835,135.642 h -97.67 v 35.435 h 97.67 z"
           style="fill:#f79595;fill-opacity:1;fill-rule:nonzero;stroke:none"
           id="path3780" /><path
           d="m 304.837,135.645 h -21.229 v 35.429 h 21.229 z"
           style="fill:#f47c7c;fill-opacity:1;fill-rule:nonzero;stroke:none"
           id="path3782" /><path
           d="m 304.835,135.642 h -97.67 v 35.435 h 97.67 z"
           style="fill:none;stroke:#000000;stroke-width:15;stroke-linecap:round;stroke-linejoin:round;stroke-miterlimit:10;stroke-dasharray:none;stroke-opacity:1"
           id="path3784" /><path
           d="M 402.504,63.938 H 207.165 v 35.434 h 195.339 z"
           style="fill:#c1e9af;fill-opacity:1;fill-rule:nonzero;stroke:none"
           id="path3786" /><path
           d="m 402.502,63.936 h -21.22 v 35.438 h 21.22 z"
           style="fill:#ade194;fill-opacity:1;fill-rule:nonzero;stroke:none"
           id="path3788" /><g
           id="g3790"
           transform="translate(333.0605,63.9385)"><path
             d="M 0,0 H -125.896 V 35.434 H 69.443 V 0 H 34.941"
             style="fill:none;stroke:#000000;stroke-width:15;stroke-linecap:round;stroke-linejoin:round;stroke-miterlimit:10;stroke-dasharray:none;stroke-opacity:1"
             id="path3792" /></g></g></g></g></svg>
