<svg height="512pt" viewBox="0 0 512 512" width="512pt" xmlns="http://www.w3.org/2000/svg"><path d="m227.207031 388.496094c-25.269531 0-49.027343-9.839844-66.894531-27.710938-9.046875-9.046875-9.046875-23.710937 0-32.757812 9.042969-9.046875 23.710938-9.046875 32.757812 0 9.117188 9.121094 21.242188 14.140625 34.140626 14.140625 12.894531 0 25.019531-5.019531 34.136718-14.140625l66.679688-66.679688c18.824218-18.824218 18.824218-49.453125 0-68.277344l-9.09375-9.09375c-9.046875-9.046874-9.046875-23.710937 0-32.757812 9.042968-9.046875 23.710937-9.046875 32.757812 0l9.09375 9.09375c36.890625 36.886719 36.890625 96.90625 0 133.792969l-66.675781 66.679687c-17.875 17.871094-41.632813 27.710938-66.902344 27.710938zm0 0" fill="#6e7ca8"/><path d="m227.207031 342.167969c-7.9375 0-15.578125-1.910157-22.414062-5.5.511719 2.117187.777343 4.3125.777343 6.546875 0 7.394531-2.878906 14.347656-8.109374 19.578125l-14.675782 14.671875c13.515625 7.207031 28.675782 11.027344 44.421875 11.027344 23.980469 0 46.589844-8.875 64.105469-25.050782 1.167969-6.613281 1.765625-13.375 1.765625-20.226562 0-13.820313-2.425781-27.269532-7.058594-39.863282l-24.675781 24.675782c-9.117188 9.121094-21.238281 14.140625-34.136719 14.140625zm0 0" fill="#54669e"/><path d="m111.203125 504.5c-25.269531 0-49.027344-9.839844-66.898437-27.710938l-9.09375-9.09375c-17.871094-17.871093-27.710938-41.625-27.710938-66.898437 0-25.269531 9.839844-49.027344 27.710938-66.898437l66.679687-66.679688c17.867187-17.867188 41.625-27.707031 66.894531-27.707031 25.269532 0 49.027344 9.839843 66.898438 27.707031l9.09375 9.097656c17.871094 17.867188 27.710937 41.625 27.710937 66.898438 0 25.269531-9.839843 49.027344-27.710937 66.894531l-66.679688 66.679687c-17.867187 17.871094-41.625 27.710938-66.894531 27.710938zm57.582031-218.660156c-12.894531 0-25.019531 5.019531-34.136718 14.140625l-66.679688 66.679687c-9.121094 9.117188-14.144531 21.242188-14.144531 34.136719 0 12.898437 5.023437 25.023437 14.144531 34.140625l9.09375 9.09375c9.117188 9.121094 21.242188 14.144531 34.140625 14.144531 12.894531 0 25.019531-5.023437 34.136719-14.144531l66.679687-66.679688c9.121094-9.117187 14.140625-21.242187 14.140625-34.136718 0-12.898438-5.019531-25.019532-14.140625-34.140625l-9.09375-9.097657c-9.117187-9.117187-21.242187-14.136718-34.140625-14.136718zm0 0" fill="#89d47f"/><path d="m343.214844 272.488281c-25.269532 0-49.027344-9.839843-66.898438-27.707031l-9.09375-9.097656c-17.871094-17.867188-27.710937-41.625-27.710937-66.898438 0-25.265625 9.839843-49.027344 27.710937-66.894531l66.679688-66.679687c17.867187-17.871094 41.625-27.710938 66.894531-27.710938s49.027344 9.839844 66.898437 27.710938l9.09375 9.09375c17.867188 17.867187 27.710938 41.625 27.710938 66.898437 0 25.269531-9.84375 49.027344-27.710938 66.894531l-66.679687 66.679688c-17.867187 17.871094-41.625 27.710937-66.894531 27.710937zm57.582031-218.664062c-12.894531 0-25.019531 5.023437-34.140625 14.144531l-66.679688 66.679688c-9.117187 9.117187-14.140624 21.242187-14.140624 34.136718 0 12.898438 5.023437 25.023438 14.140624 34.140625l9.097657 9.09375c9.117187 9.121094 21.242187 14.140625 34.140625 14.140625 12.894531 0 25.019531-5.019531 34.136718-14.140625l66.679688-66.679687c9.121094-9.117188 14.140625-21.242188 14.140625-34.136719 0-12.898437-5.019531-25.023437-14.140625-34.140625l-9.09375-9.09375c-9.121094-9.121094-21.246094-14.144531-34.140625-14.144531zm0 0" fill="#eea849"/><path d="m291.347656 191.222656c-3.597656-6.835937-5.507812-14.488281-5.507812-22.4375 0-12.894531 5.019531-25.019531 14.140625-34.136718l24.671875-24.671876c-12.59375-4.636718-26.042969-7.0625-39.859375-7.0625-6.855469 0-13.617188.601563-20.230469 1.765626-16.175781 17.515624-25.050781 40.125-25.050781 64.105468 0 15.746094 3.824219 30.90625 11.027343 44.417969l14.671876-14.671875c5.21875-5.214844 12.171874-8.085938 19.582031-8.085938 2.238281 0 4.433593.269532 6.554687.777344zm0 0" fill="#e9901b"/><path d="m176.691406 367.570312c-5.929687 0-11.855468-2.261718-16.378906-6.785156l-9.097656-9.097656c-36.886719-36.886719-36.886719-96.90625 0-133.792969l66.679687-66.679687c17.871094-17.867188 41.628907-27.710938 66.898438-27.710938s49.027343 9.839844 66.894531 27.710938c9.046875 9.046875 9.046875 23.710937 0 32.757812-9.042969 9.046875-23.710938 9.046875-32.757812 0-18.824219-18.824218-49.453126-18.824218-68.277344 0l-66.679688 66.679688c-18.824218 18.824218-18.824218 49.453125 0 68.277344l9.097656 9.097656c9.042969 9.046875 9.042969 23.710937 0 32.757812-4.523437 4.523438-10.453124 6.785156-16.378906 6.785156zm0 0" fill="#6e7ca8"/><path d="m53.828125 355.617188c-4.144531 0-7.5-3.359376-7.5-7.5v-4.382813c0-4.144531 3.355469-7.5 7.5-7.5 4.140625 0 7.5 3.355469 7.5 7.5v4.382813c0 4.140624-3.359375 7.5-7.5 7.5zm0 0" fill="#5ec783"/><path d="m334.527344 177.308594c-4.140625 0-7.5-3.355469-7.5-7.5v-8.84375c0-4.144532 3.359375-7.5 7.5-7.5s7.5 3.355468 7.5 7.5v8.84375c0 4.144531-3.359375 7.5-7.5 7.5zm0 0" fill="#54669e"/><path d="m472.113281 87.746094c-4.140625 0-7.5-3.355469-7.5-7.5v-12.160156c0-4.144532 3.359375-7.5 7.5-7.5s7.5 3.355468 7.5 7.5v12.160156c0 4.144531-3.359375 7.5-7.5 7.5zm0 0" fill="#e9901b"/><path d="m199.84375 435.175781c-4.144531 0-7.5-3.355469-7.5-7.5v-9.363281c0-4.140625 3.355469-7.5 7.5-7.5 4.140625 0 7.5 3.359375 7.5 7.5v9.363281c0 4.144531-3.359375 7.5-7.5 7.5zm0 0" fill="#5ec783"/><path d="m172.996094 127.257812c1.390625 2.402344 3.910156 3.75 6.5 3.75 1.273437 0 2.5625-.324218 3.746094-1.007812 3.585937-2.070312 4.816406-6.65625 2.742187-10.242188l-17.523437-30.355468c-2.070313-3.585938-6.660157-4.816406-10.246094-2.746094-3.585938 2.070312-4.816406 6.660156-2.742188 10.246094zm166.007812 257.484376c-2.070312-3.585938-6.65625-4.8125-10.246094-2.742188-3.585937 2.070312-4.816406 6.65625-2.742187 10.242188l17.523437 30.355468c1.390626 2.40625 3.910157 3.75 6.5 3.75 1.273438 0 2.5625-.324218 3.746094-1.003906 3.585938-2.070312 4.816406-6.660156 2.742188-10.246094zm-249.617187-216.265626 33.046875 19.078126c1.179687.679687 2.46875 1.003906 3.742187 1.003906 2.59375 0 5.113281-1.34375 6.503907-3.75 2.070312-3.585938.839843-8.175782-2.746094-10.246094l-33.046875-19.078125c-3.585938-2.070313-8.171875-.84375-10.242188 2.746094-2.074219 3.585937-.84375 8.171875 2.742188 10.246093zm392.707031-129.476562-9.097656-9.09375c-19.28125-19.285156-44.925782-29.90625-72.199219-29.90625-21.152344 0-41.40625 6.375-58.566406 18.433594-3.386719 2.382812-4.203125 7.058594-1.824219 10.449218 2.382812 3.390626 7.0625 4.207032 10.449219 1.824219 14.621093-10.273437 31.890625-15.707031 49.941406-15.707031 23.269531 0 45.140625 9.058594 61.59375 25.515625l9.09375 9.09375c16.453125 16.453125 25.515625 38.324219 25.515625 61.59375 0 23.265625-9.0625 45.140625-25.511719 61.59375l-66.679687 66.679687c-16.453125 16.453126-38.328125 25.511719-61.59375 25.511719s-45.140625-9.058593-61.59375-25.511719l-9.097656-9.097656c-10.117188-10.117187-17.554688-22.488281-21.691407-35.976562l5.125-5.125c6.496094-6.496094 14.652344-10.332032 23.117188-11.519532 1.851562 11.496094 7.246093 22.113282 15.601562 30.46875l9.097657 9.097657c10.535156 10.535156 24.542968 16.335937 39.441406 16.335937 14.898437 0 28.90625-5.800781 39.441406-16.335937l66.679688-66.679688c10.535156-10.535156 16.339843-24.542969 16.339843-39.441406s-5.804687-28.90625-16.339843-39.441406l-9.09375-9.097657c-10.535157-10.535156-24.542969-16.339843-39.441407-16.339843-14.902343 0-28.910156 5.804687-39.445312 16.339843l-55.507813 55.507813c-6.851562-1.425781-13.894531-2.164063-21.054687-2.164063-7.371094 0-14.617188.78125-21.65625 2.292969 2.800781-3.921875 5.921875-7.640625 9.390625-11.105469l53.121094-53.125c2.925781-2.929687 2.925781-7.675781 0-10.605468-2.929688-2.929688-7.679688-2.929688-10.609376 0l-53.117187 53.121094c-8.488281 8.488281-15.296875 18.222656-20.3125 28.949218-10.648437 4.972656-20.457031 11.820313-29.015625 20.378906l-66.679688 66.679688c-8.546874 8.546875-15.382812 18.351562-20.351562 29-10.738281 5.019531-20.480469 11.832031-28.972656 20.324219l-66.679688 66.679687c-19.289062 19.285156-29.910156 44.925782-29.910156 72.199219s10.621094 52.917969 29.90625 72.203125l9.097656 9.09375c19.28125 19.285156 44.925782 29.90625 72.199219 29.90625 21.785156 0 42.53125-6.726562 59.996094-19.460938 3.347656-2.4375 4.082031-7.128906 1.640625-10.476562-2.4375-3.347656-7.128906-4.082031-10.476563-1.640625-14.882812 10.84375-32.574219 16.578125-51.160156 16.578125-23.269531 0-45.140625-9.058594-61.59375-25.515625l-9.09375-9.09375c-16.453125-16.449219-25.515625-38.324219-25.515625-61.59375 0-23.265625 9.0625-45.140625 25.511719-61.59375l66.679687-66.679687c3.480469-3.476563 7.210938-6.609376 11.152344-9.421876-1.511719 7.046876-2.292969 14.304688-2.292969 21.6875 0 7.152344.730469 14.1875 2.152344 21.023438l-55.539063 55.542969c-10.535156 10.535156-16.339843 24.542969-16.339843 39.441406s5.804687 28.90625 16.339843 39.441406l9.09375 9.097657c10.535157 10.535156 24.542969 16.335937 39.441407 16.335937 14.902343 0 28.910156-5.800781 39.445312-16.335937l66.679688-66.679688c10.535156-10.535156 16.335937-24.542969 16.335937-39.441406 0-14.902344-5.800781-28.910156-16.335937-39.441406l-9.097657-9.101563c-8.355468-8.355469-18.972656-13.746094-30.472656-15.597656 1.214844-8.734375 5.195313-16.792969 11.519532-23.117188l5.125-5.125c13.488281 4.136719 25.859374 11.574219 35.980468 21.691407l9.09375 9.097656c16.453125 16.449218 25.515625 38.324218 25.515625 61.59375 0 23.265625-9.0625 45.140625-25.515625 61.59375l-51.675781 51.675781c-2.929687 2.929687-2.929687 7.679687 0 10.609375 1.464844 1.464844 3.382813 2.195312 5.300781 2.195312 1.921875 0 3.839844-.730468 5.304688-2.195312l51.675781-51.679688c8.558594-8.558593 15.40625-18.367187 20.378906-29.011718 10.730469-5.019532 20.464844-11.828125 28.949219-20.3125l66.679688-66.679688c8.417968-8.421875 15.195312-18.144531 20.21875-28.90625 10.683593-4.980468 20.523437-11.839844 29.105468-20.421875l66.679688-66.679687c19.289062-19.285156 29.910156-44.925782 29.910156-72.199219s-10.621094-52.917969-29.90625-72.203125zm-167.714844 167.71875-9.097656-9.097656c-5.328125-5.328125-9.003906-11.921875-10.753906-19.097656 7.003906 1.710937 13.640625 5.292968 19.101562 10.753906l9.09375 9.097656c5.324219 5.324219 8.992188 11.921875 10.738282 19.117188-7.164063-1.75-13.734376-5.425782-19.082032-10.773438zm57.582032-133.449219c7.703124-7.699219 17.941406-11.941406 28.835937-11.941406s21.132813 4.242187 28.835937 11.941406l9.09375 9.097657c7.703126 7.703124 11.945313 17.941406 11.945313 28.835937s-4.242187 21.132813-11.945313 28.835937l-49.835937 49.839844c-5.105469-13.023437-12.847656-24.914062-22.804687-34.871094l-9.09375-9.097656c-10.089844-10.085937-21.917969-17.796875-34.808594-22.863281zm-231.921876 365.460938c-7.703124 7.699219-17.941406 11.941406-28.835937 11.941406s-21.132813-4.242187-28.835937-11.941406l-9.09375-9.097657c-7.703126-7.703124-11.945313-17.941406-11.945313-28.835937s4.242187-21.132813 11.945313-28.835937l49.792968-49.792969c5.058594 12.902343 12.761719 24.738281 22.847656 34.820312l9.09375 9.097657c9.988282 9.988281 21.863282 17.75 34.820313 22.851562zm57.582032-133.449219 9.097656 9.097656c5.351562 5.351563 9.03125 11.933594 10.777344 19.105469-7.1875-1.75-13.785156-5.421875-19.125-10.757813l-9.09375-9.101562c-5.34375-5.34375-9.015625-11.921875-10.757813-19.101562 7.179688 1.753906 13.769531 5.425781 19.101563 10.757812zm-18.949219-59.929688c-10.523437 10.519532-16.316406 24.527344-16.316406 39.441407 0 14.914062 5.792969 28.921875 16.316406 39.441406l9.09375 9.09375c8.363281 8.363281 18.988281 13.757813 30.496094 15.609375-1.21875 8.71875-5.207031 16.777344-11.542969 23.113281l-5.125 5.121094c-13.488281-4.136719-25.859375-11.570313-35.980469-21.691406l-9.09375-9.097657c-11.105469-11.105468-18.824219-24.707031-22.667969-39.554687-.0625-.359375-.160156-.71875-.277343-1.070313-1.660157-6.777343-2.523438-13.804687-2.523438-20.96875 0-11.890624 2.371094-23.40625 6.863281-34.023437.1875-.34375.34375-.699219.472657-1.066406 4.289062-9.761719 10.375-18.746094 18.132812-26.5l66.679688-66.679688c16.453125-16.453125 38.328125-25.515625 61.59375-25.515625s45.140625 9.0625 61.59375 25.515625l9.097656 9.09375c10.070313 10.070313 17.488281 22.464844 21.632813 36.035157l-5.066407 5.070312c-6.339843 6.339844-14.40625 10.328125-23.136719 11.542969-1.847656-11.523438-7.230468-22.148438-15.582031-30.496094l-9.09375-9.097656c-21.75-21.746094-57.136719-21.746094-78.886719 0zm71.410156 25.664063-9.097656-9.097656c-9.988281-9.988281-21.859375-17.75-34.820313-22.851563l32.902344-32.902344c5.101563 12.960938 12.863282 24.832032 22.851563 34.820313l9.09375 9.097656c10.089843 10.089844 21.917969 17.800781 34.804687 22.867188l-32.871094 32.871093c-5.0625-12.890624-12.773437-24.71875-22.863281-34.804687zm105.398438 17.785156-66.679688 66.683594c-3.464843 3.464844-7.183593 6.585937-11.105469 9.386719 1.511719-7.035156 2.292969-14.285156 2.292969-21.65625 0-7.160156-.738281-14.207032-2.167969-21.054688l44.339844-44.339844c6.851563 1.429688 13.894532 2.167969 21.054688 2.167969 7.359375 0 14.597656-.777343 21.625-2.289062-2.800782 3.9375-5.910156 7.652343-9.359375 11.101562zm67.132812 54.722657-33.046875-19.078126c-3.585937-2.070312-8.171875-.839843-10.242187 2.746094-2.070313 3.585938-.84375 8.175782 2.742187 10.246094l33.046875 19.078125c1.179688.679687 2.46875 1.003906 3.742188 1.003906 2.589843 0 5.113281-1.34375 6.5-3.75 2.074219-3.585937.84375-8.171875-2.742188-10.246093zm0 0"/></svg>