<svg height="512" viewBox="0 0 512 512" width="512" xmlns="http://www.w3.org/2000/svg"><g id="filled_outline" data-name="filled outline"><path d="m168 104h272v272h-272z" fill="#3b69b0"/><path d="m440 376h-272l-80-80h272z" fill="#0e3e86"/><path d="m168 376-80-80v-272l80 80z" fill="#1b53a6"/><path d="m440 104h-272l-80-80h272z" fill="#5e86c3"/><path d="m248 432v-232h-224v232" fill="#06b790"/><ellipse cx="136" cy="200" fill="#4bccaf" rx="112" ry="40"/><path d="m248 432a14.743 14.743 0 0 1 -.56 4c-5.61 20.21-53.36 36-111.44 36-61.86 0-112-17.91-112-40 0-21.61 47.99-39.22 108-39.97 1.32-.02 2.66-.03 4-.03s2.68.01 4 .03c56.26.7 101.96 16.22 107.44 35.97a14.743 14.743 0 0 1 .56 4z" fill="#009172"/><path d="m318.164 208h-24v-40h4v-16a8 8 0 0 1 8-8 8 8 0 0 1 8 8v16h4z" fill="#e67701"/><path d="m322.164 226.945-30.07-10.945-95.766 263.114 31.452-39.633a28.944 28.944 0 0 0 23.89-18.855z" fill="#fcc419"/><path d="m290.164 226.945 30.07-10.945 95.766 263.114-31.452-39.633a28.945 28.945 0 0 1 -23.89-18.855z" fill="#fee066"/><circle cx="306.164" cy="216" fill="#f5a000" r="24"/><path d="m306.164 224a8 8 0 1 1 8-8 8.009 8.009 0 0 1 -8 8z" fill="#e67701"/><path d="m240 480h248v-184zm216-32h-119.164l119.164-88.412z" fill="#339aef"/><path d="m284 372a4 4 0 0 0 0 8h44a4 4 0 0 0 0-8z"/><path d="m88 152a4 4 0 0 0 4-4v-114.343l72 72v39.343a4 4 0 0 0 8 0v-37h264v204a4 4 0 0 0 8 0v-208a3.989 3.989 0 0 0 -1.174-2.831l-80-80a4 4 0 0 0 -2.826-1.169h-272a4 4 0 0 0 -4 4v124a4 4 0 0 0 4 4zm268-124v8h8v-2.343l66.343 66.343h-66.343v-4h-8v4h-186.343l-72-72z"/><path d="m377.214 311.213h7.999v12h-7.999z" transform="matrix(.707 -.707 .707 .707 -112.649 362.468)"/><path d="m394.185 328.184h7.999v12h-7.999z" transform="matrix(.707 -.707 .707 .707 -119.678 379.439)"/><path d="m356 168h8v12h-8z"/><path d="m356 120h8v12h-8z"/><path d="m356 144h8v12h-8z"/><path d="m356 192h8v12h-8z"/><path d="m356 264h8v12h-8z"/><path d="m356 300h2.344l7.313 7.313 5.656-5.656-7.313-7.313v-6.344h-8z"/><path d="m356 240h8v12h-8z"/><path d="m356 216h8v12h-8z"/><path d="m356 48h8v12h-8z"/><path d="m356 72h8v12h-8z"/><path d="m182.677 464.317a285 285 0 0 1 -46.677 3.683c-29.471 0-57.118-4.078-77.852-11.483-19.16-6.843-30.148-15.78-30.148-24.517v-215.436c6 5.865 15.268 11.134 27.459 15.488 21.574 7.705 50.178 11.948 80.541 11.948s58.967-4.243 80.541-11.948c12.191-4.352 21.459-9.623 27.459-15.488v83.436a4 4 0 0 0 8 0v-100c0-12.5-12.593-23.885-35.459-32.052-21.574-7.705-50.178-11.948-80.541-11.948s-58.967 4.243-80.541 11.948c-22.866 8.167-35.459 19.552-35.459 32.052v232c0 12.5 12.593 23.884 35.457 32.051 21.575 7.705 50.179 11.949 80.543 11.949a292.93 292.93 0 0 0 47.993-3.792 4 4 0 0 0 -1.316-7.891zm-124.528-288.835c20.734-7.404 48.381-11.482 77.851-11.482s57.117 4.078 77.851 11.482c19.16 6.843 30.149 15.78 30.149 24.518s-10.989 17.675-30.149 24.518c-19.792 7.067-45.888 11.1-73.851 11.447v-11.965h-8v11.965c-27.963-.352-54.059-4.38-73.851-11.447-19.16-6.843-30.149-15.78-30.149-24.518s10.989-17.675 30.149-24.518z"/><path d="m207.247 396.97c-4.9-1.409-10.161-2.681-15.631-3.78l-1.576 7.844c5.258 1.056 10.3 2.276 15 3.625z"/><path d="m175.816 390.564c-5.155-.69-10.5-1.25-15.9-1.663l-.611 7.977c5.245.4 10.442.945 15.447 1.616z"/><path d="m66.956 404.66c4.7-1.349 9.742-2.569 15-3.624l-1.575-7.844c-5.466 1.1-10.725 2.37-15.63 3.779z"/><path d="m39.26 416.578a76.818 76.818 0 0 1 13.245-6.919l-3.074-7.387a84.814 84.814 0 0 0 -14.631 7.667z"/><path d="m97.238 398.5c5.007-.67 10.2-1.214 15.449-1.616l-.614-7.977c-5.392.414-10.74.974-15.895 1.663z"/><path d="m132 200h8v12h-8z"/><path d="m144 428h12v8h-12z"/><path d="m132 320h8v12h-8z"/><path d="m132 344h8v12h-8z"/><path d="m132 368h8v12h-8z"/><path d="m192 428h12v8h-12z"/><path d="m132 296h8v12h-8z"/><path d="m132 248h8v12h-8z"/><path d="m132 416h8v12h-8z"/><path d="m140 396.05c1.259.016 2.521.015 3.775.047l.2-8c-5.3-.131-10.655-.131-15.955 0l.2 8c1.257-.032 2.523-.031 3.785-.047v7.95h8z"/><path d="m132 272h8v12h-8z"/><path d="m168 428h12v8h-12z"/><path d="m306.164 228a12 12 0 1 0 -12-12 12.013 12.013 0 0 0 12 12zm0-16a4 4 0 1 1 -4 4 4 4 0 0 1 4-4z"/><path d="m255.429 422 50.731-139.4 36.74 100.937a4 4 0 1 0 7.518-2.736l-50.011-137.401a27.954 27.954 0 0 0 23.453-5.721l46.162 126.821a4 4 0 1 0 7.518-2.736l-47.654-130.915a27.943 27.943 0 0 0 -7.726-37.81v-25.039a4 4 0 0 0 -4-4v-12a12 12 0 0 0 -24 0v12a4 4 0 0 0 -4 4v25.044a27.945 27.945 0 0 0 -7.724 37.8l-89.865 246.9a4 4 0 0 0 6.892 3.855l30.458-38.379a32.948 32.948 0 0 0 25.508-21.22zm42.731-250a4 4 0 0 0 4-4v-16a4 4 0 1 1 8 0v16a4 4 0 0 0 4 4v17.169a27.924 27.924 0 0 0 -16 0zm8 24a20 20 0 1 1 -9.561 37.561 4 4 0 0 0 -2.241-1.451 19.976 19.976 0 0 1 11.8-36.11zm-66.238 234.311a24.857 24.857 0 0 1 -12.595 5.195 4 4 0 0 0 -2.68 1.488l-16.127 20.322 79.942-219.64q.9.732 1.853 1.39l11.585 31.834-53.99 148.365a24.916 24.916 0 0 1 -7.988 11.046z"/><path d="m333.038 449.255a4 4 0 0 0 3.8 2.745h119.162a4 4 0 0 0 4-4v-88.412a4 4 0 0 0 -6.384-3.212l-119.164 88.412a4 4 0 0 0 -1.414 4.467zm118.962-81.719v76.464h-103.06z"/><path d="m489.8 292.427a4 4 0 0 0 -4.182.361l-248 184a4 4 0 0 0 2.382 7.212h248a4 4 0 0 0 4-4v-184a4 4 0 0 0 -2.2-3.573zm-5.8 183.573h-231.9l231.9-172.052z"/></g></svg>