<svg id="Capa_1" enable-background="new 0 0 501 501" height="512" viewBox="0 0 501 501" width="512" xmlns="http://www.w3.org/2000/svg"><g><path d="m490 256c0 3.015-9.559 6.678-9.667 9.667-1.668 46.165-7.547 78.11-31.333 114.333-3.453 5.259-6.163 20.682-10 25.649-11.699 15.144-25.131 28.88-40 40.911-2.646 2.141-4.848-1.196-7.583.836-10.946 8.129-22.593 15.366-34.834 21.604-2.343 1.194-5.197 7.775-7.583 8.895-12.77 5.995-26.141 10.921-39.999 14.661-2.37.639-1.464-4.643-3.861-4.073-11.742 2.79-23.811 4.735-36.139 5.767-2.229.187-7.755 6.23-10 6.357-4.633.261-9.301.393-14 .393-12.23 0-24.251-.896-36-2.626-3.5-.515-5.54-5.444-8.991-6.106-10.949-2.1-21.639-4.929-32.018-8.435-2.537-.857-6.492 2.585-8.991 1.648-13.986-5.244-27.365-11.729-40.002-19.323-3.437-2.065-1.771-12.339-5.096-14.565-12.108-8.107-23.452-17.265-33.903-27.343-2.019-1.947-9.052 4.199-11.003 2.184-42.711-44.096-68.997-104.195-68.997-170.434 0-135.31 109.69-245 245-245s245 109.69 245 245z" fill="#463b83"/><path d="m480.333 265.667c-.448 12.409-1.201 23.791-2.524 34.503-36.674 48.756-95.016 80.286-160.723 80.286-111.004 0-200.991-89.987-200.991-200.991 0-68.117 33.885-128.319 85.718-164.67 14.019-2.494 28.451-3.795 43.187-3.795 135.31 0 245 109.69 245 245 0 3.016-9.559 6.678-9.667 9.667z" fill="#54469b"/><path d="m489 260v18.283c-4.302 47.719-22.287 91.491-50 127.365v-145.648zm-140 217.895c17.965-8.435 34.739-18.987 50-31.335v-186.56h-50zm-280-51.457c14.825 15.306 31.63 28.685 50 39.722v-156.16h-50zm190 74.168c17.201-.969 33.928-3.712 50-8.05v-212.556l-50 80zm-100-15.125c15.944 5.978 32.677 10.342 50 12.893v-138.374l-50-30z" fill="#738c96"/><path d="m115.083 171.65-10.283 3.695c-1.154.415-2.062 1.323-2.477 2.477l-3.696 10.283c-1.303 3.625-6.43 3.625-7.733 0l-3.696-10.283c-.415-1.154-1.323-2.062-2.477-2.477l-10.283-3.695c-3.625-1.303-3.625-6.43 0-7.733l10.283-3.696c1.154-.415 2.062-1.323 2.477-2.477l3.696-10.284c1.303-3.625 6.43-3.625 7.733 0l3.696 10.284c.415 1.153 1.323 2.062 2.477 2.477l10.283 3.696c3.625 1.303 3.625 6.43 0 7.733z" fill="#fff5f5"/><path d="m365.807 416.877-3.696 10.283c-1.303 3.625-6.43 3.625-7.733 0l-3.696-10.283c-.415-1.154-1.323-2.062-2.477-2.477l-10.283-3.696c-3.625-1.303-3.625-6.43 0-7.733l10.283-3.696c1.154-.415 2.062-1.323 2.477-2.477l3.696-10.283c1.303-3.625 6.43-3.625 7.733 0l3.696 10.283c.415 1.154 1.323 2.062 2.477 2.477l10.283 3.696c3.625 1.303 3.625 6.43 0 7.733l-10.283 3.696c-1.154.414-2.062 1.323-2.477 2.477z" fill="#f5c02c"/><path d="m199.603 86.998-3.696 10.283c-1.303 3.625-6.43 3.625-7.733 0l-3.696-10.283c-.415-1.154-1.323-2.062-2.477-2.477l-10.283-3.696c-3.625-1.303-3.625-6.43 0-7.733l10.283-3.696c1.154-.415 2.062-1.323 2.477-2.477l3.696-10.283c1.303-3.625 6.43-3.625 7.733 0l3.696 10.283c.415 1.154 1.323 2.062 2.477 2.477l10.283 3.696c3.625 1.303 3.625 6.43 0 7.733l-10.283 3.696c-1.154.415-2.062 1.323-2.477 2.477z" fill="#fd8f01"/><path d="m212.364 276.908-10.283 3.696c-1.154.415-2.062 1.323-2.477 2.477l-3.696 10.284c-1.303 3.625-6.43 3.625-7.733 0l-3.696-10.284c-.415-1.154-1.323-2.062-2.477-2.477l-10.283-3.696c-3.625-1.303-3.625-6.43 0-7.733l10.283-3.696c1.154-.415 2.062-1.323 2.477-2.477l3.696-10.284c1.303-3.625 6.43-3.625 7.733 0l3.696 10.284c.415 1.154 1.323 2.062 2.477 2.477l10.283 3.696c3.625 1.303 3.625 6.429 0 7.733zm-30 136.184-10.283-3.696c-1.154-.415-2.062-1.323-2.477-2.477l-3.696-10.284c-1.303-3.625-6.43-3.625-7.733 0l-3.696 10.284c-.415 1.154-1.323 2.062-2.477 2.477l-10.283 3.696c-3.625 1.303-3.625 6.43 0 7.733l10.283 3.696c1.154.415 2.062 1.323 2.477 2.477l3.696 10.284c1.303 3.625 6.43 3.625 7.733 0l3.696-10.284c.415-1.154 1.323-2.062 2.477-2.477l10.283-3.696c3.625-1.303 3.625-6.429 0-7.733z" fill="#f5dc90"/><path d="m349.752 226.513-85 147.224c-2.761 4.783-8.877 6.422-13.66 3.661-1.612-.931-2.865-2.242-3.715-3.755.021 1.735-.41 3.498-1.34 5.109-2.761 4.783-8.877 6.421-13.66 3.66l-138.437-79.927-52.179 90.376c-4.242-6.287-8.2-12.782-11.856-19.465l50.856-88.085c.195-.531.438-1.053.73-1.559 2.761-4.783 8.877-6.422 13.66-3.661l147.224 85c1.612.931 2.865 2.242 3.715 3.755-.021-1.735.41-3.498 1.34-5.109l85-147.224c2.761-4.783 8.877-6.422 13.66-3.66 4.785 2.761 6.424 8.877 3.662 13.66z" fill="#9bb9c3"/><path d="m116.094 289.781c3.574 13.336-4.341 27.045-17.678 30.619-13.337 3.573-27.045-4.341-30.619-17.678s4.341-27.045 17.678-30.619c13.338-3.574 27.046 4.341 30.619 17.678zm155.761 77.416c-3.574-13.336-17.282-21.251-30.619-17.678-13.337 3.574-21.251 17.282-17.678 30.619 3.574 13.337 17.282 21.251 30.619 17.678s21.252-17.282 17.678-30.619z" fill="#f5dc90"/><path d="m271.246 382.097c-.639.228-1.293.433-1.96.612-13.337 3.574-27.045-4.341-30.619-17.678-1.369-5.109-1.052-10.272.61-14.899.639-.228 1.293-.433 1.96-.612 13.337-3.573 27.045 4.341 30.619 17.678 1.368 5.108 1.051 10.271-.61 14.899zm-185.77-109.994c-.667.179-1.321.383-1.96.612-1.662 4.627-1.979 9.791-.61 14.899 3.574 13.336 17.282 21.251 30.619 17.678.667-.179 1.321-.384 1.96-.612 1.662-4.627 1.979-9.791.61-14.899-3.574-13.337-17.282-21.252-30.619-17.678z" fill="#f9eecf"/><path d="m361.516 277.856c-20.791 17.107-45.671 28.141-71.786 32.337-9.423-24.714-12.308-51.777-7.889-78.337z" fill="#f57e00"/><path d="m353.245 88.181-70 121.244-91.983-13.253c-7.002-1.009-10.772-8.771-7.234-14.898l32.615-56.49c27.614-47.83 88.773-64.218 136.602-36.603zm97.738 56.428-70 121.244 57.469 73.034c4.375 5.56 12.982 4.943 16.519-1.184l32.615-56.491c27.614-47.829 11.227-108.988-36.603-136.603z" fill="#fd4343"/><path d="m335.336 80.052c-35.957 1.115-70.528 20.253-89.837 53.698l-35.05 60.707c-.795 1.376-1.246 2.83-1.395 4.278l-17.793-2.563c-7.002-1.009-10.772-8.771-7.234-14.898l32.615-56.49c24.266-42.029 74.431-59.78 118.694-44.732z" fill="#d00041"/><path d="m399.175 273.714c-7.071 6.044-14.446 11.646-22.084 16.796-9.461 6.379-21.761 6.72-31.643 1.014l-67.409-38.918c-9.883-5.706-15.737-16.528-14.943-27.912.641-9.189 1.805-18.378 3.504-27.523.768-4.137 5.377-6.289 9.021-4.185l122.669 70.823c3.643 2.104 4.083 7.171.885 9.905z" fill="#d00041"/><path d="m266.167 199.564c4.819-27.471 14.446-54.58 29.2-80.136 38.368-66.455 103.168-108.135 173.453-119.428 25.362 66.515 21.666 143.473-16.702 209.928-14.755 25.556-33.419 47.447-54.8 65.356z" fill="#f1ca50"/><path d="m472.409 10.063c21.317 64.129 16.157 136.736-20.29 199.865-.107.185-.214.371-.322.556-17.057 29.369-54.824 39.187-84.237 22.205l-15.465-8.929c-27.208-15.709-38.219-49.277-25.833-78.15 3.806-8.872 8.176-17.615 13.123-26.183 30.868-53.465 78.846-90.894 133.024-109.364z" fill="#f5dc90"/><path d="m414.554 163.992c-9.665 16.74-31.071 22.476-47.811 12.811s-22.476-31.071-12.811-47.811 31.071-22.476 47.811-12.811 22.476 31.07 12.811 47.811zm24.689-112.763c-11.957-6.904-27.247-2.807-34.151 9.151s-2.807 27.247 9.151 34.151c11.957 6.904 27.247 2.807 34.151-9.151s2.806-27.248-9.151-34.151z" fill="#4f66cf"/><path d="m405.092 60.379c6.904-11.958 22.193-16.054 34.151-9.151 3.814 2.202 6.828 5.258 8.941 8.786-8.34.282-16.351 4.731-20.83 12.49-4.702 8.144-4.301 17.832.21 25.365-4.513.152-9.122-.915-13.32-3.339-11.958-6.904-16.055-22.194-9.152-34.151zm-38.349 116.423c4.138 2.389 8.561 3.836 13.021 4.41-9.256-10.955-11.154-26.961-3.571-40.096 7.276-12.603 21.206-18.967 34.79-17.221-2.541-3.007-5.635-5.633-9.24-7.715-16.74-9.665-38.146-3.93-47.811 12.811s-3.929 38.146 12.811 47.811z" fill="#2740af"/></g></svg>