<?xml version="1.0" encoding="UTF-8"?>
<!-- Generated by Pixelmator Pro 2.4.5 -->
<svg width="512" height="512" viewBox="0 0 512 512" xmlns="http://www.w3.org/2000/svg" xmlns:xlink="http://www.w3.org/1999/xlink">
    <g id="Layerx00201">
        <g id="300884496">
            <g id="Group">
                <g id="g1">
                    <path id="Path" fill="#000000" fill-rule="evenodd" stroke="none" d="M 96 227 C 96 226 96 225 97 224 L 167 112 L 161 55 C 161 53 162 51 163 49 C 178 33 198 40 199 41 C 199 41 199 41 200 41 C 256 62 245 136 239 162 C 249 163 273 163 304 162 C 308 162 311 165 311 169 C 311 173 308 176 304 176 C 287 177 270 177 257 177 C 232 176 228 174 226 171 C 224 169 224 167 224 164 C 228 149 246 74 195 54 C 194 53 184 50 175 57 L 181 112 C 181 114 181 116 180 117 L 109 231 C 107 234 103 235 99 233 C 97 232 96 230 96 227 Z"/>
                </g>
                <g id="g2">
                    <path id="path1" fill="#000000" fill-rule="evenodd" stroke="none" d="M 0 376 L -0 206 C -0 202 3 199 7 199 L 103 199 C 107 199 110 202 110 206 L 110 376 C 110 380 107 383 103 383 L 7 383 C 3 383 0 380 0 376 Z M 14 213 L 14 369 L 96 369 L 96 213 Z"/>
                </g>
                <g id="g3">
                    <path id="path2" fill="#000000" fill-rule="evenodd" stroke="none" d="M 34 336 C 34 324 43 315 55 315 C 67 315 76 324 76 336 C 76 348 66 357 55 357 C 44 357 34 348 34 336 Z M 62 336 C 62 332 59 329 55 329 C 51 329 48 332 48 336 C 48 340 51 343 55 343 C 59 343 62 340 62 336 Z"/>
                </g>
                <g id="g4">
                    <path id="path3" fill="#000000" fill-rule="evenodd" stroke="none" d="M 277 222 C 277 218 280 215 284 215 L 421 215 C 431 215 440 206 440 195 C 440 185 431 176 421 176 L 304 176 C 300 176 297 173 297 169 C 297 165 300 162 304 162 L 421 162 C 439 162 454 177 454 195 C 454 214 439 229 421 229 L 284 229 C 280 229 277 226 277 222 Z"/>
                </g>
                <g id="g5">
                    <path id="path4" fill="#000000" fill-rule="evenodd" stroke="none" d="M 285 274 C 285 270 288 267 292 267 L 362 267 C 373 267 382 259 382 248 C 382 237 373 229 362 229 C 358 229 355 226 355 222 C 355 218 358 215 362 215 C 381 215 396 230 396 248 C 396 266 381 281 362 281 L 292 281 C 288 281 285 278 285 274 Z"/>
                </g>
                <g id="g6">
                    <path id="path5" fill="#000000" fill-rule="evenodd" stroke="none" d="M 297 326 C 297 322 300 319 304 319 L 343 319 C 354 319 362 311 362 300 C 362 290 353 281 343 281 C 339 281 336 278 336 274 C 336 270 339 267 343 267 C 361 267 376 282 376 300 C 376 319 361 333 343 333 L 304 333 C 300 333 297 330 297 326 Z"/>
                </g>
                <g id="g7">
                    <path id="path6" fill="#000000" fill-rule="evenodd" stroke="none" d="M 96 353 C 96 352 96 351 97 350 C 99 346 103 345 107 347 C 160 378 221 376 281 373 C 297 373 313 372 328 372 C 338 372 346 364 346 354 L 346 351 C 346 342 338 333 328 333 C 324 333 321 330 321 326 C 321 322 324 319 328 319 C 345 319 360 334 360 351 L 360 354 C 360 372 346 386 328 386 C 313 386 297 387 282 387 C 220 390 156 392 100 359 C 97 358 96 356 96 353 Z"/>
                </g>
                <g id="g8">
                    <path id="path7" fill="#000000" fill-rule="evenodd" stroke="none" d="M 401 349 C 401 348 401 347 402 346 L 418 318 L 402 291 C 401 288 401 285 402 283 C 404 281 406 280 409 280 L 441 286 L 463 263 C 465 261 467 260 470 261 C 473 261 474 264 475 266 L 479 299 L 508 312 C 510 313 512 316 512 318 C 512 321 510 323 508 325 L 479 338 L 475 370 C 474 373 473 375 470 376 C 467 377 465 376 463 374 L 441 351 L 409 356 C 406 357 404 355 402 353 C 401 352 401 351 401 349 Z M 433 318 C 433 319 433 321 432 322 L 422 340 L 443 336 C 445 336 448 337 449 338 L 463 354 L 466 332 C 467 330 468 328 470 327 L 488 318 L 470 310 C 468 309 466 307 466 304 L 463 283 L 449 298 C 447 300 445 300 443 300 L 421 297 L 432 315 C 433 316 433 317 433 318 Z"/>
                </g>
                <g id="g9">
                    <path id="path8" fill="#000000" fill-rule="evenodd" stroke="none" d="M 368 405 C 368 404 368 402 369 401 C 371 399 374 398 376 398 L 399 403 L 415 386 C 417 384 420 384 422 385 C 425 386 427 388 427 390 L 429 413 L 450 423 C 452 424 454 427 454 429 C 454 432 452 434 450 436 L 429 445 L 427 467 C 427 470 425 472 422 473 C 420 474 417 473 415 471 L 400 455 L 376 459 C 374 460 371 459 369 456 C 368 454 368 451 369 449 L 380 429 L 369 409 C 368 408 368 406 368 405 Z M 415 407 L 407 415 C 405 417 403 418 401 417 L 388 415 L 394 426 C 395 428 395 431 394 433 L 388 443 L 401 440 C 403 440 405 441 407 442 L 415 451 L 416 439 C 416 437 418 435 420 434 L 431 429 L 420 423 C 418 422 416 420 416 418 Z"/>
                </g>
                <g id="g10">
                    <path id="path9" fill="#000000" fill-rule="evenodd" stroke="none" d="M 387 132 C 387 131 387 130 388 129 L 399 109 L 388 90 C 387 87 387 84 388 82 C 390 80 393 79 395 79 L 417 84 L 433 67 C 435 65 437 64 440 65 C 443 65 445 68 445 70 L 447 94 L 468 103 C 470 104 472 106 472 109 C 472 112 470 114 468 116 L 447 125 L 445 147 C 445 150 443 152 440 153 C 438 154 435 153 433 151 L 418 135 L 395 139 C 393 140 390 139 388 136 C 387 135 387 134 387 132 Z M 414 109 C 414 110 414 112 413 113 L 408 122 L 419 120 C 421 120 423 121 425 122 L 433 131 L 434 119 C 434 117 436 115 438 114 L 448 109 L 438 105 C 436 104 434 102 434 99 L 433 88 L 425 96 C 424 98 421 99 419 98 L 408 96 L 413 106 C 414 107 414 108 414 109 Z"/>
                </g>
                <g id="g11">
                    <path id="path10" fill="#000000" fill-rule="evenodd" stroke="none" d="M 278 132 C 278 131 278 130 279 129 L 289 109 L 279 89 C 278 87 278 84 279 82 C 281 80 284 79 286 79 L 308 84 L 324 67 C 326 65 328 64 331 65 C 334 65 336 68 336 70 L 339 94 L 359 103 C 361 104 363 106 363 109 C 363 112 361 114 359 116 L 339 125 L 336 147 C 336 150 334 152 331 153 C 329 154 326 153 324 151 L 309 135 L 286 139 C 284 140 281 139 279 137 C 279 135 278 134 278 132 Z M 304 109 C 304 110 304 111 303 112 L 298 123 L 310 120 C 312 120 315 121 316 122 L 324 131 L 325 119 C 325 117 327 115 329 114 L 339 109 L 329 105 C 327 104 325 102 325 99 L 324 88 L 316 96 C 315 98 312 99 310 98 L 298 96 L 303 106 C 304 107 304 108 304 109 Z"/>
                </g>
            </g>
        </g>
    </g>
</svg>
