<svg id="outline" height="512" viewBox="0 0 960 960" width="512" xmlns="http://www.w3.org/2000/svg"><path d="m497.396 477.353c20.742 18.902 40.812 30.536 61.355 35.567 7.718 1.89 15.661 2.807 23.651 2.807 29.021 0 58.621-12.108 79.923-33.678 25.249-25.566 38.68-63.598 35.926-101.734-2.22-30.754-15.049-62.217-35.197-86.322-22.608-27.048-52.288-42.161-83.573-42.553-29.963-.383-55.357 12.81-71.388 23.938-21.375 14.838-38.094 34.016-48.346 55.458-11.349 23.734-14.566 50.003-9.059 73.969 5.784 25.167 21.498 49.576 46.707 72.548zm-19.605-137.89c8.757-18.315 23.18-34.795 41.708-47.656 13.448-9.335 34.48-20.375 58.732-20.375.332 0 .667.002 1 .006 25.354.318 49.674 12.884 68.479 35.381 17.518 20.959 28.669 48.272 30.594 74.937 2.345 32.474-8.948 64.713-30.208 86.24-22.325 22.606-55.526 32.615-84.587 25.499-17.213-4.215-34.432-14.331-52.641-30.924-22.143-20.178-35.832-41.12-40.686-62.245-4.499-19.576-1.796-41.191 7.61-60.862zm-373.332 151.023c6.909 0 13.363-1.404 17.434-2.29 57.497-12.514 113.848-13.324 160.102-2.453-2.058 6.486-1.986 13.373.161 19.819-50.84 18.868-93.298 37.228-132.602 62.851-16.314 10.637-26.056 22.932-28.954 36.542-2.561 12.01 1.31 19.756 5.008 24.14 7.838 9.292 21.461 11.844 33.939 12.34-26.886 30.076-45.786 62.67-57.515 99.059-12.373 38.384-17.865 99.939-14.623 116.782.832 4.335 3.468 10.401 11.302 14.684 6.664 3.643 16.562 5.466 29.597 5.466 10.629 0 23.345-1.213 38.082-3.64 25.703-4.232 50.732-11.079 62.173-15.655 34.345-13.738 57.801-29.142 79.327-53.09 3.244 16.944 11.48 33.52 29.205 36.032 26.199 3.726 43.025-24.176 52.066-39.166 18.77-31.131 44.432-79.123 62.833-124.561.526.257 1.05.528 1.576.782 3.505 1.69 7.318 2.54 11.139 2.54 2.652 0 5.306-.417 7.864-1.239 8.579 44.412.914 95.053-21.623 140.809l-.864 1.741c-2.606 5.231-5.56 11.161-6.746 17.988-1.784 10.349 1.235 20.109 8.083 26.115 3.678 3.22 9.008 6.01 16.436 6.01 6.588 0 14.826-2.195 25.023-8.232 67.087-39.742 123.327-96.351 162.64-163.709 10.082-17.277 19.402-36.191 19.337-57.421-.043-15.951-5.742-32.899-16.478-49.012-3.454-5.183-7.493-10.417-12.366-16.038 37.846-29.31 73.242-61.907 103.866-96.149 31.418-35.13 65.287-80.3 91.269-133.488.365-.589.66-1.2.89-1.827 28.211-58.36 46.847-126.283 42.365-201.153-1.979-33.069-28.288-59.582-61.195-61.673-58.931-3.743-118.82 5.189-177.998 26.549-10.853 3.917-21.628 8.237-32.316 12.94-.133.055-.264.113-.395.175-43.314 19.101-85.183 44.593-124.849 76.064-41.721 33.101-79.622 71.944-112.066 114.21-6.305-4.496-12.359-8.29-18.321-11.464-15.66-8.356-39.771-17.163-65.695-11.675-21.063 4.445-65.725 29.253-82.612 42.479-6.732 5.272-12.559 9.807-17.763 13.858-30.77 23.947-40.057 31.175-85.597 73.358-6.403 5.923-21.772 20.521-26.196 28.148-6.024 10.409-5.973 22.68.133 31.266 6.296 8.844 15.99 11.19 24.921 11.19zm237.768 176.058c-4.653-1.993-10.06-.195-12.594 4.186-14.736 25.476-37.806 45.75-64.974 57.091-8.255 3.462-14.469 4.986-20.134 4.9-6.007-.071-11.539-2.354-14.434-5.958-2.875-3.58-3.972-9.341-2.935-15.395 1.076-6.213 3.981-12.327 8.015-19.598 14.723-26.564 33.382-50.622 55.458-71.504 2.733-2.585 3.784-6.486 2.719-10.095-1.065-3.608-4.065-6.314-7.765-7.001-5.239-.973-10.656-1.979-14.633-4.319-2.823-1.648-4.877-4.335-4.884-6.398-.012-2.777 3.098-6.475 9.237-10.985 11.857-8.698 24.576-16.247 37.886-22.529 12.22 17.061 26.212 33.471 41.641 48.718 14.096 13.931 29.244 26.744 45.026 38.186-8.567 20.791-21.091 40.144-36.534 56.329-2.954 3.1-7.284 7.229-10.746 7.295-.022 0-.043 0-.066 0-3.231 0-6.952-4.278-7.832-9.029-1.242-6.702 1.122-14.771 3.208-21.89 1.423-4.857-1.007-10.011-5.659-12.004zm29.806 125.035c-9.884 16.389-20.615 31.328-32.128 29.693-11.721-1.661-14.653-28.521-13.562-41.857.365-4.461-2.28-8.622-6.474-10.185-4.193-1.563-8.916-.148-11.562 3.463-24.462 33.412-47.274 50.91-87.173 66.87-9.834 3.934-37.243 11.595-64.839 15.545-36.165 5.176-47.978.433-49.247-1.606-2.153-11.186 1.965-69.478 14.018-106.871 13.177-40.88 35.142-75.27 69.124-108.228 2.696-2.615 3.7-6.52 2.599-10.11-1.102-3.591-4.122-6.262-7.821-6.916-2.364-.418-5.196-.302-9.886-.11-7.907.323-28.919 1.181-34.188-5.066-.443-.525-1.79-2.122-.734-7.075 2.189-10.28 12.256-18.702 20.315-23.957 38.25-24.935 80.096-42.9 130.506-61.545 3.392 6.233 7.028 12.427 10.907 18.56-13.463 6.559-26.351 14.309-38.42 23.163-4.776 3.509-17.463 12.831-17.401 27.185.032 9.241 5.703 18.281 14.771 23.575 1.231.725 2.479 1.365 3.736 1.935-18.259 19.278-33.993 40.755-46.894 64.033-4.341 7.825-8.584 16.377-10.233 25.902-2.022 11.804.548 23.217 7.053 31.315 6.742 8.391 17.6 13.285 29.779 13.43.203.003.406.004.608.004 10.833 0 20.861-3.672 27.492-6.453 20.405-8.519 38.802-21.434 53.82-37.543 4.532 13.737 16.6 20.948 26.749 20.735 10.827-.207 18.969-7.32 24.849-13.489 16.168-16.945 29.454-37.021 38.892-58.609 5.783 3.728 11.624 7.28 17.517 10.616-17.993 44.877-43.544 92.703-62.172 123.599zm94.838-131.334c-1.492.61-3.174.562-4.615-.132-15.105-7.283-29.9-15.995-44.128-25.853-.215-.166-.438-.321-.667-.469-49.173-34.239-91.449-82.242-115.724-133.026-1.408-2.946-1.626-6.213-.615-9.202 7.968-23.532 17.901-46.932 29.542-69.905 27.694 39.351 58.893 76.68 92.928 111.133 34.175 34.594 71.369 66.449 110.719 94.875-19.487 10.804-39.079 20.493-58.505 28.831-.078.033-.156.063-.233.098-2.905 1.245-5.806 2.463-8.702 3.648t0 0zm174.867-55.437c8.551 12.834 13.089 25.966 13.122 37.979.05 16.451-7.955 32.448-16.611 47.283-37.601 64.425-91.393 118.571-155.557 156.581-8.501 5.032-15.435 6.712-18.087 4.389-1.472-1.291-2.111-4.447-1.557-7.664.684-3.935 2.751-8.085 4.94-12.48l.902-1.818c25.131-51.023 33.156-107.927 22.477-157.572 46.686-20.813 94.099-48.909 138.657-81.74 4.718 5.369 8.531 10.263 11.714 15.041zm10.265-476.057c48.239-17.412 96.903-26.19 145.021-26.19 8.323 0 16.634.263 24.919.789 22.85 1.452 41.121 19.898 42.499 42.908 4.004 66.884-11.542 128.144-35.89 181.61-75.979-52.638-141.962-116.961-196.404-191.454 6.588-2.708 13.207-5.264 19.855-7.663zm-151.919 86.033c36.118-28.656 74.082-52.165 113.28-70.189 56.879 78.692 126.252 146.424 206.4 201.515-24.571 48.345-55.771 89.639-84.79 122.087-32.134 35.931-69.64 69.994-109.699 100.192-.022.016-.044.032-.065.049-23.264 17.533-47.389 33.75-71.827 48.277-83.412-58.886-154.742-131.141-212.164-214.915 39.149-70.388 94.273-135.769 158.865-187.016zm-403.374 243.274c1.898-3.273 11.77-13.593 22.477-23.498 44.916-41.604 54.045-48.71 84.294-72.252 5.219-4.062 11.061-8.608 17.812-13.896 20.687-16.201 61.51-35.933 74.416-38.656 15.634-3.312 34.153.152 52.151 9.756 5.096 2.713 10.315 5.98 15.786 9.863-15.693 21.779-29.936 44.359-42.515 67.444-.332.502-.61 1.032-.844 1.579-12.134 22.426-22.698 45.318-31.493 68.408-49.564-12.087-109.901-11.484-171.154 1.848-4.525.984-18.294 3.98-21.807-.953-1.479-2.08-1.1-6.229.876-9.643z"/></svg>