<svg height="512" viewBox="0 0 512 512" width="512" xmlns="http://www.w3.org/2000/svg"><g id="_33_Recycled" fill="rgb(0,0,0)" data-name="33 Recycled"><path d="m354.18 373.75h-167.37c-12.05 0-21.85-10.29-21.85-22.94a23.46 23.46 0 0 1 6.25-16.08 21.24 21.24 0 0 1 15.6-6.87h167.37a6 6 0 0 1 3.33 11c-.35.24-7 4.91-6.57 12.74.38 6.91 5.9 10.72 6.53 11.13a6 6 0 0 1 -3.29 11zm-167.37-33.89a9.34 9.34 0 0 0 -6.84 3.07 11.48 11.48 0 0 0 -3 7.88c0 6 4.41 10.94 9.85 10.94h154.55a25.12 25.12 0 0 1 -2.41-9.48 24.71 24.71 0 0 1 2.52-12.41z"/><path d="m148 356.81a6 6 0 0 1 -6-6v-81.35a6 6 0 0 1 12 0v49c.32-.36.64-.72 1-1.07a43.31 43.31 0 0 1 31.8-14.05h171.2v-159.34a18.23 18.23 0 0 0 -18.21-18.21h-167.54a18.23 18.23 0 0 0 -18.25 18.21v78.7a6 6 0 0 1 -12 0v-78.7a30.24 30.24 0 0 1 30.21-30.21h167.5a30.24 30.24 0 0 1 30.29 30.21v165.4a6 6 0 0 1 -6 6h-177.19a31.41 31.41 0 0 0 -23 10.25 36.7 36.7 0 0 0 -9.73 25.2 6 6 0 0 1 -6.08 5.96z"/><path d="m148 256.56a6 6 0 0 1 -6-6v-9a6 6 0 0 1 12 0v9a6 6 0 0 1 -6 6z"/><path d="m355.93 398.25h-169.12c-24.68 0-44.81-21.25-44.81-47.44a48.68 48.68 0 0 1 13-33.4 43.26 43.26 0 0 1 31.8-14.05h177.2a6 6 0 0 1 6 6v15a15.51 15.51 0 0 1 -15.5 15.5h-167.69a9.34 9.34 0 0 0 -6.84 3.07 11.48 11.48 0 0 0 -3 7.88c0 6 4.42 10.94 9.85 10.94h169.11a14 14 0 0 1 14 14v8.45a14 14 0 0 1 -14 14.05zm-169.12-82.89a31.39 31.39 0 0 0 -23 10.25 36.7 36.7 0 0 0 -9.73 25.2c0 19.54 14.7 35.44 32.77 35.44h169.08a2 2 0 0 0 2-2v-8.45a2 2 0 0 0 -2-2h-169.12c-12.05 0-21.85-10.29-21.85-22.94a23.46 23.46 0 0 1 6.25-16.08 21.22 21.22 0 0 1 15.6-6.87h167.64a3.5 3.5 0 0 0 3.5-3.5v-9z"/><path d="m448.54 160.28a6 6 0 0 1 -5.31-3.2 211.74 211.74 0 0 0 -369.5-8.8h73.5a6 6 0 0 1 0 12h-83.83a6 6 0 0 1 -3.21-1 6.06 6.06 0 0 1 -.79-.63 5.94 5.94 0 0 1 -1.45-2.12c0-.14-.11-.28-.15-.43l-27.67-85.61a6 6 0 1 1 11.42-3.69l23.45 72.66a223.74 223.74 0 0 1 388.82 12 6 6 0 0 1 -5.3 8.8z"/><path d="m256 479.74a223.26 223.26 0 0 1 -197.84-119.22 6 6 0 0 1 10.61-5.6 211.74 211.74 0 0 0 369.5 8.8h-73.5a6 6 0 0 1 0-12h83.83a6 6 0 0 1 3.21 1 6.06 6.06 0 0 1 .79.63 5.94 5.94 0 0 1 1.45 2.12c.05.14.11.28.15.43l27.65 85.6a6 6 0 1 1 -11.42 3.69l-23.43-72.65a223.18 223.18 0 0 1 -191 107.2z"/></g></svg>