<svg id="Filled_Expand" height="512" viewBox="0 0 64 64" width="512" xmlns="http://www.w3.org/2000/svg" data-name="Filled Expand"><path d="m38 51h-12a8 8 0 0 1 -8 8 2 2 0 0 0 -2 2v2h32v-2a2 2 0 0 0 -2-2 8 8 0 0 1 -8-8z" fill="#655666"/><path d="m38.587 54a7.96 7.96 0 0 1 -.587-3h-12a7.96 7.96 0 0 1 -.587 3z" fill="#59475b"/><rect fill="#7a6e7b" height="50" rx="4" width="62" x="1" y="1"/><path d="m6 3h53a4 4 0 0 1 4 4v40a4 4 0 0 1 -4 4h-52a4 4 0 0 1 -4-4v-41a3 3 0 0 1 3-3z" fill="#655666"/><path d="m12.5-2.5h39v54h-39z" fill="#ecebed" transform="matrix(0 1 -1 0 56.5 -7.5)"/><path d="m15.5.5h36v51h-36z" fill="#f9f9fa" transform="matrix(0 1 -1 0 59.5 -7.5)"/><path d="m27 23h6v12h-6z" fill="#aff" transform="matrix(-1 0 0 -1 60 58)"/><path d="m29 25h4v10h-4z" fill="#96f5ff" transform="matrix(-1 0 0 -1 62 60)"/><path d="m37 25h6v10h-6z" fill="#fff5a0" transform="matrix(-1 0 0 -1 80 60)"/><path d="m39 27h4v8h-4z" fill="#fce65a" transform="matrix(-1 0 0 -1 82 62)"/><path d="m47 19h6v16h-6z" fill="#ffc346" transform="matrix(-1 0 0 -1 100 54)"/><path d="m49 21h4v14h-4z" fill="#ffaa23" transform="matrix(-1 0 0 -1 102 56)"/><path d="m17 29h6v6h-6z" fill="#ff7795" transform="matrix(-1 0 0 -1 40 64)"/><path d="m19 31h4v4h-4z" fill="#ff557a" transform="matrix(-1 0 0 -1 42 66)"/><path d="m59 0h-54a5.006 5.006 0 0 0 -5 5v42a5.006 5.006 0 0 0 5 5h19.92a7.006 7.006 0 0 1 -6.92 6 3 3 0 0 0 -3 3v2a1 1 0 0 0 1 1h32a1 1 0 0 0 1-1v-2a3 3 0 0 0 -3-3 7.006 7.006 0 0 1 -6.92-6h19.92a5.006 5.006 0 0 0 5-5v-42a5.006 5.006 0 0 0 -5-5zm-13 60a1 1 0 0 1 1 1v1h-30v-1a1 1 0 0 1 1-1 9.01 9.01 0 0 0 8.941-8h10.118a9.01 9.01 0 0 0 8.941 8zm16-13a3 3 0 0 1 -3 3h-54a3 3 0 0 1 -3-3v-42a3 3 0 0 1 3-3h54a3 3 0 0 1 3 3z"/><path d="m59 4h-54a1 1 0 0 0 -1 1v39a1 1 0 0 0 1 1h54a1 1 0 0 0 1-1v-39a1 1 0 0 0 -1-1zm-1 39h-52v-37h52z"/><path d="m10 11h8a1 1 0 0 0 0-2h-8a1 1 0 0 0 0 2z"/><path d="m10 16h8a1 1 0 0 0 0-2h-8a1 1 0 0 0 0 2z"/><path d="m14 39a1 1 0 0 0 1 1h40a1 1 0 0 0 0-2h-40a1 1 0 0 0 -1 1z"/><path d="m33 36a1 1 0 0 0 1-1v-12a1 1 0 0 0 -1-1h-6a1 1 0 0 0 -1 1v12a1 1 0 0 0 1 1zm-5-12h4v10h-4z"/><path d="m43 36a1 1 0 0 0 1-1v-10a1 1 0 0 0 -1-1h-6a1 1 0 0 0 -1 1v10a1 1 0 0 0 1 1zm-5-10h4v8h-4z"/><path d="m46 19v16a1 1 0 0 0 1 1h6a1 1 0 0 0 1-1v-16a1 1 0 0 0 -1-1h-6a1 1 0 0 0 -1 1zm2 1h4v14h-4z"/><path d="m23 36a1 1 0 0 0 1-1v-6a1 1 0 0 0 -1-1h-6a1 1 0 0 0 -1 1v6a1 1 0 0 0 1 1zm-5-6h4v4h-4z"/><path d="m20.669 24.743 9.494-8.543 9.39 4.7a1 1 0 0 0 1.154-.188l8.293-8.298v1.586a1 1 0 0 0 2 0v-4a1 1 0 0 0 -1-1h-4a1 1 0 0 0 0 2h1.586l-7.786 7.783-9.356-4.677a1 1 0 0 0 -1.116.151l-10 9a1 1 0 0 0 1.338 1.486z"/></svg>