<svg id="svg4593" height="512" viewBox="0 0 16.933333 16.933334" width="512" xmlns="http://www.w3.org/2000/svg" xmlns:svg="http://www.w3.org/2000/svg"><clipPath id="clipPath5337"><path id="rect5339" d="m34.774 274.321h35.435v25.702h-35.435z"/></clipPath><clipPath id="clipPath4542"><path id="rect4544" d="m-535.214-48.848h501.574v185.586h-501.574z"/></clipPath><g id="layer1" transform="translate(0 -280.067)"><path id="rect7729" d="m7.7189086 289.03522-6.79855136 2.80913c-.48705663.19182-.53438858.96549-.05271 1.17771l6.66212546 2.74453c.6281591.23333 1.2910838.2335 1.8737876 0l6.6621257-2.74453c.481679-.21222.434347-.98589-.05271-1.17771l-6.7985515-2.80913c-.572212-.23273-.9068713-.23535-1.4955159 0z" fill="#ffab61" paint-order="normal"/><path id="path7973" d="m12.495391 290.39052c-.995872.42339-2.000818.84095-2.9925816 1.26711-.6474867.24428-1.0740067.36854-1.861385.0801-.7320582-.31272-1.4665407-.62738-2.1993489-.94102-.6614816-.31091-1.0977047.70893-.4159954.97255l2.1740275.92966c.8937739.39064 1.7309613.34919 2.7791584-.0956l3.890718-1.64486z" fill="#ff8f64" font-variant-ligatures="normal" font-variant-position="normal" font-variant-caps="normal" font-variant-numeric="normal" font-variant-alternates="normal" font-feature-settings="normal" text-indent="0" text-align="start" text-decoration-line="none" text-decoration-style="solid" text-decoration-color="#000000" text-transform="none" text-orientation="mixed" white-space="normal" shape-padding="0" isolation="auto" mix-blend-mode="normal" solid-color="#000000" solid-opacity="1" vector-effect="none" paint-order="normal"/><path id="path7742" d="m7.7189086 285.1678-6.79855136 2.80913c-.48705663.19182-.53438858.96549-.05271 1.17771l6.66212546 2.74453c.6281591.23333 1.2910838.2335 1.8737876 0l6.6621257-2.74453c.481679-.21222.434347-.98589-.05271-1.17771l-6.7985515-2.80913c-.572212-.23273-.9068713-.23535-1.4955159 0z" fill="#ffc861" paint-order="normal"/><path id="path7966" d="m47.246094 24.412109c-3.763927 1.600199-7.562145 3.178405-11.310547 4.789063-2.447194.923279-4.059238 1.392915-7.035156.302734-2.766834-1.18194-5.542831-2.37123-8.3125-3.55664-2.500088-1.175097-4.148805 2.679418-1.572266 3.675781l8.216797 3.513672c3.378043 1.476458 6.542216 1.319774 10.503906-.361328l14.705078-6.216797z" fill="#ffab61" transform="matrix(.265 0 0 .265 0 280.067)" font-variant-ligatures="normal" font-variant-position="normal" font-variant-caps="normal" font-variant-numeric="normal" font-variant-alternates="normal" font-feature-settings="normal" text-indent="0" text-align="start" text-decoration-line="none" text-decoration-style="solid" text-decoration-color="#000000" text-transform="none" text-orientation="mixed" white-space="normal" shape-padding="0" isolation="auto" mix-blend-mode="normal" solid-color="#000000" solid-opacity="1" vector-effect="none" paint-order="normal"/><path id="path7746" d="m7.7189086 281.30069-6.79855136 2.80913c-.48705663.19182-.53438858.96549-.05271 1.17771l6.66212546 2.74453c.6281591.23333 1.2910838.2335 1.8737876 0l6.6621257-2.74453c.481679-.21222.434347-.98589-.05271-1.17771l-6.7985515-2.80913c-.572212-.23273-.9068713-.23535-1.4955159 0z" fill="#55a1ff" paint-order="normal"/></g></svg>