<?xml version="1.0" encoding="UTF-8"?>
<svg xmlns="http://www.w3.org/2000/svg" xmlns:xlink="http://www.w3.org/1999/xlink" version="1.1" id="Capa_1" x="0px" y="0px" viewBox="0 0 512 512" style="enable-background:new 0 0 512 512;" xml:space="preserve" width="512" height="512">
<g>
	
		<polyline style="fill:none;stroke:#000000;stroke-width:15;stroke-linecap:round;stroke-linejoin:round;stroke-miterlimit:10;" points="&#10;&#9;&#9;475.52,130.43 504.5,130.43 504.5,171.95 &#9;"/>
	<path style="fill:none;stroke:#000000;stroke-width:15;stroke-linecap:round;stroke-linejoin:round;stroke-miterlimit:10;" d="&#10;&#9;&#9;M504.5,206.95v222.62H308.71c-3.52,0-6.89,1.01-9.75,2.81c-2.87,1.8-5.24,4.4-6.77,7.57c-3.05,6.34-9.47,10.37-16.51,10.37h-39.36&#10;&#9;&#9;c-3.52,0-6.88-1.01-9.75-2.81c-2.87-1.8-5.23-4.39-6.76-7.56c-3.06-6.34-9.48-10.38-16.52-10.38H7.5V130.43h28.08"/>
	
		<polyline style="fill:none;stroke:#000000;stroke-width:15;stroke-linecap:round;stroke-linejoin:round;stroke-miterlimit:10;" points="&#10;&#9;&#9;39,293.02 39,100.43 66.16,100.43 &#9;"/>
	
		<line style="fill:none;stroke:#000000;stroke-width:15;stroke-linecap:round;stroke-linejoin:round;stroke-miterlimit:10;" x1="473" y1="399.57" x2="334.19" y2="399.57"/>
	
		<polyline style="fill:none;stroke:#000000;stroke-width:15;stroke-linecap:round;stroke-linejoin:round;stroke-miterlimit:10;" points="&#10;&#9;&#9;299.19,399.57 256,399.57 39,399.57 39,328.02 &#9;"/>
	
		<polyline style="fill:none;stroke:#000000;stroke-width:15;stroke-linecap:round;stroke-linejoin:round;stroke-miterlimit:10;" points="&#10;&#9;&#9;256,100.425 472.997,100.425 472.997,399.575 &#9;"/>
	<path style="fill:none;stroke:#000000;stroke-width:15;stroke-linecap:round;stroke-linejoin:round;stroke-miterlimit:10;" d="&#10;&#9;&#9;M217.66,80.22c13.3,5.54,26.14,12.29,38.34,20.21v299.14l-3.98-2.29c-36.54-21.04-77.96-32.12-120.13-32.12H68.76V61.68h56.28&#10;&#9;&#9;c20.04,0,39.9,2.5,59.13,7.38"/>
	
		<line style="fill:none;stroke:#000000;stroke-width:15;stroke-linecap:round;stroke-linejoin:round;stroke-miterlimit:10;" x1="297.144" y1="162.687" x2="324.423" y2="189.966"/>
	
		<line style="fill:none;stroke:#000000;stroke-width:15;stroke-linecap:round;stroke-linejoin:round;stroke-miterlimit:10;" x1="297.144" y1="189.966" x2="324.423" y2="162.687"/>
	
		<line style="fill:none;stroke:#000000;stroke-width:15;stroke-linecap:round;stroke-linejoin:round;stroke-miterlimit:10;" x1="297.144" y1="230.254" x2="324.423" y2="257.534"/>
	
		<line style="fill:none;stroke:#000000;stroke-width:15;stroke-linecap:round;stroke-linejoin:round;stroke-miterlimit:10;" x1="297.144" y1="257.534" x2="324.423" y2="230.254"/>
	
		<line style="fill:none;stroke:#000000;stroke-width:15;stroke-linecap:round;stroke-linejoin:round;stroke-miterlimit:10;" x1="297.144" y1="296.876" x2="324.423" y2="324.156"/>
	
		<line style="fill:none;stroke:#000000;stroke-width:15;stroke-linecap:round;stroke-linejoin:round;stroke-miterlimit:10;" x1="297.144" y1="324.156" x2="324.423" y2="296.876"/>
	
		<line style="fill:none;stroke:#000000;stroke-width:15;stroke-linecap:round;stroke-linejoin:round;stroke-miterlimit:10;" x1="353.5" y1="193.548" x2="438.935" y2="193.548"/>
	
		<line style="fill:none;stroke:#000000;stroke-width:15;stroke-linecap:round;stroke-linejoin:round;stroke-miterlimit:10;" x1="353.5" y1="259.548" x2="438.935" y2="259.548"/>
	
		<line style="fill:none;stroke:#000000;stroke-width:15;stroke-linecap:round;stroke-linejoin:round;stroke-miterlimit:10;" x1="353.5" y1="324.548" x2="438.935" y2="324.548"/>
	<g>
		
			<circle style="fill:none;stroke:#000000;stroke-width:15;stroke-linecap:round;stroke-linejoin:round;stroke-miterlimit:10;" cx="162.382" cy="220.626" r="54.793"/>
		
			<line style="fill:none;stroke:#000000;stroke-width:15;stroke-linecap:round;stroke-linejoin:round;stroke-miterlimit:10;" x1="145.183" y1="203.427" x2="179.581" y2="237.825"/>
		
			<line style="fill:none;stroke:#000000;stroke-width:15;stroke-linecap:round;stroke-linejoin:round;stroke-miterlimit:10;" x1="145.183" y1="237.825" x2="179.581" y2="203.427"/>
	</g>
</g>















</svg>
