<svg id="Capa_1" enable-background="new 0 0 511.427 511.427" height="512" viewBox="0 0 511.427 511.427" width="512" xmlns="http://www.w3.org/2000/svg"><g><g><path d="m63.427 109.713v376h384c35.346 0 64-28.654 64-64v-312c0-4.418-3.582-8-8-8h-432c-4.418 0-8 3.582-8 8z" fill="#feefcd"/><path d="m111.427 101.713h-40c-4.418 0-8 3.582-8 8v376h40v-376c0-4.418 3.582-8 8-8z" fill="#fde8b4"/><path d="m375.874 421.713h-367.875c-4.9 0-8.614 4.361-7.915 9.21 4.465 30.982 31.124 54.79 63.342 54.79h384c-32.96 0-60.101-24.916-63.615-56.94-.441-4.029-3.883-7.06-7.937-7.06z" fill="#fde09b"/></g><g><path d="m271.427 149.713c-2.047 0-4.095-.781-5.657-2.343l-76-76c-3.125-3.124-3.125-8.189 0-11.313 3.124-3.124 8.189-3.124 11.313 0l76 76c3.125 3.124 3.125 8.189 0 11.313-1.561 1.562-3.609 2.343-5.656 2.343z" fill="#c9bfcb"/><circle cx="195.427" cy="65.713" fill="#7d55cc" r="40"/><path d="m215.427 85.713c-22.091 0-40-17.909-40-40 0-5.868 1.274-11.435 3.544-16.456-13.88 6.276-23.544 20.233-23.544 36.456 0 22.091 17.909 40 40 40 16.223 0 30.18-9.664 36.456-23.544-5.021 2.271-10.588 3.544-16.456 3.544z" fill="#5c2bbf"/></g><g><g fill="#6f5575"><path d="m191.427 213.713h-48c-4.418 0-8 3.582-8 8s3.582 8 8 8h16v56c0 4.418 3.582 8 8 8s8-3.582 8-8v-56h16c4.418 0 8-3.582 8-8s-3.582-8-8-8z"/><path d="m231.427 293.713c-17.645 0-32-17.944-32-40s14.355-40 32-40 32 17.944 32 40-14.355 40-32 40zm0-64c-8.673 0-16 10.991-16 24s7.327 24 16 24 16-10.991 16-24-7.327-24-16-24z"/></g><g fill="#6f5575"><path d="m407.427 293.713c-17.645 0-32-17.944-32-40s14.355-40 32-40 32 17.944 32 40-14.355 40-32 40zm0-64c-8.673 0-16 10.991-16 24s7.327 24 16 24 16-10.991 16-24-7.327-24-16-24z"/><path d="m303.427 293.713c-4.418 0-8-3.582-8-8v-72c0-2.352 1.035-4.584 2.829-6.104s4.163-2.176 6.486-1.787c2.232.372 54.685 9.555 54.685 47.891 0 31.641-36.631 40-56 40zm8-69.766v53.148c11.674-1.478 32-6.479 32-23.382 0-17.263-19.81-26.015-32-29.766z"/></g><g fill="#f79235"><path d="m375.427 333.713h-160c-4.418 0-8-3.582-8-8s3.582-8 8-8h160c4.418 0 8 3.582 8 8s-3.582 8-8 8z"/><path d="m335.427 373.713h-104c-4.418 0-8-3.582-8-8s3.582-8 8-8h104c4.418 0 8 3.582 8 8s-3.582 8-8 8z"/></g></g></g></svg>