<?xml version="1.0" encoding="iso-8859-1"?>
<!-- Generator: Adobe Illustrator 19.0.0, SVG Export Plug-In . SVG Version: 6.00 Build 0)  -->
<svg version="1.1" id="Capa_1" xmlns="http://www.w3.org/2000/svg" xmlns:xlink="http://www.w3.org/1999/xlink" x="0px" y="0px"
	 viewBox="0 0 512 512" style="enable-background:new 0 0 512 512;" xml:space="preserve">
<path style="fill:#EFCF4A;" d="M140.953,291.144H93.508c-13.177,0-23.86-10.683-23.86-23.86v-22.569
	c0-13.177,10.683-23.86,23.86-23.86h47.445c13.177,0,23.86,10.683,23.86,23.86v22.569
	C164.813,280.462,154.13,291.144,140.953,291.144z"/>
<path style="fill:#60BEC8;" d="M418.492,291.144h-47.445c-13.177,0-23.86-10.683-23.86-23.86v-22.569
	c0-13.177,10.683-23.86,23.86-23.86h47.445c13.177,0,23.86,10.683,23.86,23.86v22.569
	C442.352,280.462,431.669,291.144,418.492,291.144z"/>
<path style="fill:#FC6947;" d="M279.722,70.289h-47.445c-13.177,0-23.86-10.683-23.86-23.86V23.86C208.417,10.683,219.1,0,232.278,0
	h47.445c13.177,0,23.86,10.683,23.86,23.86v22.569C303.583,59.606,292.9,70.289,279.722,70.289z"/>
<g>
	<path style="fill:#EFCF4A;" d="M71.567,512H24.124c-13.177,0-23.86-10.683-23.86-23.86v-22.569c0-13.177,10.683-23.86,23.86-23.86
		h47.445c13.177,0,23.86,10.683,23.86,23.86v22.569C95.428,501.317,84.745,512,71.567,512z"/>
	<path style="fill:#EFCF4A;" d="M210.337,512h-47.445c-13.177,0-23.86-10.683-23.86-23.86v-22.569
		c0-13.177,10.683-23.86,23.86-23.86h47.445c13.177,0,23.86,10.683,23.86,23.86v22.569C234.197,501.317,223.515,512,210.337,512z"/>
</g>
<g>
	<path style="fill:#60BEC8;" d="M349.107,512h-47.445c-13.177,0-23.86-10.683-23.86-23.86v-22.569
		c0-13.177,10.683-23.86,23.86-23.86h47.445c13.177,0,23.86,10.683,23.86,23.86v22.569C372.967,501.317,362.285,512,349.107,512z"/>
	<path style="fill:#60BEC8;" d="M487.876,512h-47.445c-13.177,0-23.86-10.683-23.86-23.86v-22.569
		c0-13.177,10.683-23.86,23.86-23.86h47.445c13.177,0,23.86,10.683,23.86,23.86v22.569C511.737,501.317,501.055,512,487.876,512z"/>
</g>
<g>
	<path style="fill:#494F56;" d="M186.615,365.473h-61.548v-48.588c0-4.328-3.509-7.837-7.837-7.837s-7.837,3.509-7.837,7.837v48.588
		H47.846c-4.328,0-7.837,3.509-7.837,7.837v41.796c0,4.328,3.509,7.837,7.837,7.837s7.837-3.509,7.837-7.837v-33.959h123.096v33.959
		c0,4.328,3.509,7.837,7.837,7.837c4.328,0,7.837-3.509,7.837-7.837V373.31C194.451,368.981,190.943,365.473,186.615,365.473z"/>
	<path style="fill:#494F56;" d="M464.154,365.473h-61.548v-48.588c0-4.328-3.509-7.837-7.837-7.837
		c-4.328,0-7.837,3.509-7.837,7.837v48.588h-61.548c-4.328,0-7.837,3.509-7.837,7.837v41.796c0,4.328,3.509,7.837,7.837,7.837
		c4.328,0,7.837-3.509,7.837-7.837v-33.959h123.095v33.959c0,4.328,3.509,7.837,7.837,7.837c4.328,0,7.837-3.509,7.837-7.837V373.31
		C471.991,368.981,468.482,365.473,464.154,365.473z"/>
	<path style="fill:#494F56;" d="M386.933,196.059c0,4.328,3.509,7.837,7.837,7.837c4.328,0,7.837-3.509,7.837-7.837v-41.796
		c0-4.328-3.509-7.837-7.837-7.837H263.837V97.839c0-4.328-3.509-7.837-7.837-7.837s-7.837,3.509-7.837,7.837v48.588H117.23
		c-4.328,0-7.837,3.509-7.837,7.837v41.796c0,4.328,3.509,7.837,7.837,7.837s7.837-3.509,7.837-7.837V162.1h261.866V196.059z"/>
</g>
<g>
</g>
<g>
</g>
<g>
</g>
<g>
</g>
<g>
</g>
<g>
</g>
<g>
</g>
<g>
</g>
<g>
</g>
<g>
</g>
<g>
</g>
<g>
</g>
<g>
</g>
<g>
</g>
<g>
</g>
</svg>
