<svg height="512" viewBox="0 0 64 64" width="512" xmlns="http://www.w3.org/2000/svg"><g id="Data-Folder-Management-Structure-Gear"><path d="m25.68 34.47a9.8 9.8 0 0 1 -1.09 2.62l2.02 2.69-2.83 2.83-2.69-2.02a9.8 9.8 0 0 1 -2.62 1.09l-.47 3.32h-4l-.47-3.32a9.8 9.8 0 0 1 -2.62-1.09l-2.69 2.02-2.83-2.83 2.02-2.69a9.8 9.8 0 0 1 -1.09-2.62l-3.32-.47v-4l3.32-.47a9.8 9.8 0 0 1 1.09-2.62l-2.02-2.69 2.83-2.83 2.69 2.02a9.8 9.8 0 0 1 2.62-1.09l.47-3.32h4l.47 3.32a9.8 9.8 0 0 1 2.62 1.09l2.69-2.02 2.83 2.83-2.02 2.69a9.8 9.8 0 0 1 1.09 2.62l3.32.47v4z" fill="#ff9811"/><circle cx="16" cy="32" fill="#ffd422" r="5"/><g fill="#ff9811"><path d="m61 52v6a2.006 2.006 0 0 1 -2 2h-12a2.006 2.006 0 0 1 -2-2v-10h7l4 4z"/><path d="m61 32v6a2.006 2.006 0 0 1 -2 2h-12a2.006 2.006 0 0 1 -2-2v-10h7l4 4z"/><path d="m61 11v6a2.006 2.006 0 0 1 -2 2h-12a2.006 2.006 0 0 1 -2-2v-10h7l4 4z"/></g><path d="m59 45v7h-3l-4-4h-5v-3a1 1 0 0 1 1-1h10a1 1 0 0 1 1 1z" fill="#e6e7e8"/><path d="m59 25v7h-3l-4-4h-5v-3a1 1 0 0 1 1-1h10a1 1 0 0 1 1 1z" fill="#e6e7e8"/><path d="m59 4v7h-3l-4-4h-5v-3a1 1 0 0 1 1-1h10a1 1 0 0 1 1 1z" fill="#e6e7e8"/><path d="m61 51h-1v-6a2.006 2.006 0 0 0 -2-2h-10a2.006 2.006 0 0 0 -2 2v2h-1a1 1 0 0 0 -1 1v10a3.009 3.009 0 0 0 3 3h12a3.009 3.009 0 0 0 3-3v-6a1 1 0 0 0 -1-1zm-13-6h10v6h-1.59l-3.7-3.71a1.033 1.033 0 0 0 -.71-.29h-4zm12 13a1 1 0 0 1 -1 1h-12a1 1 0 0 1 -1-1v-9h5.59l3.7 3.71a1.033 1.033 0 0 0 .71.29h4z"/><path d="m61 31h-1v-6a2.006 2.006 0 0 0 -2-2h-10a2.006 2.006 0 0 0 -2 2v2h-1a1 1 0 0 0 -1 1v10a3.009 3.009 0 0 0 3 3h12a3.009 3.009 0 0 0 3-3v-6a1 1 0 0 0 -1-1zm-13-6h10v6h-1.59l-3.7-3.71a1.033 1.033 0 0 0 -.71-.29h-4zm12 13a1 1 0 0 1 -1 1h-12a1 1 0 0 1 -1-1v-9h5.59l3.7 3.71a1.033 1.033 0 0 0 .71.29h4z"/><path d="m61 10h-1v-6a2.006 2.006 0 0 0 -2-2h-10a2.006 2.006 0 0 0 -2 2v2h-1a1 1 0 0 0 -1 1v10a3.009 3.009 0 0 0 3 3h12a3.009 3.009 0 0 0 3-3v-6a1 1 0 0 0 -1-1zm-13-6h10v6h-1.59l-3.7-3.71a1.033 1.033 0 0 0 -.71-.29h-4zm12 13a1 1 0 0 1 -1 1h-12a1 1 0 0 1 -1-1v-9h5.59l3.7 3.71a1.033 1.033 0 0 0 .71.29h4z"/><path d="m29.14 29.01-2.68-.38a10.291 10.291 0 0 0 -.68-1.64l1.63-2.17a.994.994 0 0 0 -.1-1.31l-2.82-2.82a.994.994 0 0 0 -1.31-.1l-2.17 1.63a10.291 10.291 0 0 0 -1.64-.68l-.38-2.68a1 1 0 0 0 -.99-.86h-4a1 1 0 0 0 -.99.86l-.38 2.68a10.291 10.291 0 0 0 -1.64.68l-2.17-1.63a.994.994 0 0 0 -1.31.1l-2.82 2.82a.994.994 0 0 0 -.1 1.31l1.63 2.17a10.291 10.291 0 0 0 -.68 1.64l-2.68.38a1 1 0 0 0 -.86.99v4a1 1 0 0 0 .86.99l2.68.38a10.291 10.291 0 0 0 .68 1.64l-1.63 2.17a.994.994 0 0 0 .1 1.31l2.82 2.82a.994.994 0 0 0 1.31.1l2.17-1.63a10.291 10.291 0 0 0 1.64.68l.38 2.68a1 1 0 0 0 .99.86h4a1 1 0 0 0 .99-.86l.38-2.68a10.291 10.291 0 0 0 1.64-.68l2.17 1.63a.994.994 0 0 0 1.31-.1l2.82-2.82a.994.994 0 0 0 .1-1.31l-1.63-2.17a10.291 10.291 0 0 0 .68-1.64l2.68-.38a1 1 0 0 0 .86-.99v-4a1 1 0 0 0 -.86-.99zm-1.14 4.12-2.46.35a1 1 0 0 0 -.83.75 8.664 8.664 0 0 1 -.98 2.35 1.017 1.017 0 0 0 .06 1.11l1.5 1.99-1.61 1.61-1.99-1.5a1.017 1.017 0 0 0 -1.11-.06 8.664 8.664 0 0 1 -2.35.98 1 1 0 0 0 -.75.83l-.35 2.46h-2.26l-.35-2.46a1 1 0 0 0 -.75-.83 8.664 8.664 0 0 1 -2.35-.98 1.017 1.017 0 0 0 -1.11.06l-1.99 1.5-1.61-1.61 1.5-1.99a1.017 1.017 0 0 0 .06-1.11 8.664 8.664 0 0 1 -.98-2.35 1 1 0 0 0 -.83-.75l-2.46-.35v-2.26l2.46-.35a1 1 0 0 0 .83-.75 8.664 8.664 0 0 1 .98-2.35 1.017 1.017 0 0 0 -.06-1.11l-1.5-1.99 1.61-1.61 1.99 1.5a1.017 1.017 0 0 0 1.11.06 8.664 8.664 0 0 1 2.35-.98 1 1 0 0 0 .75-.83l.35-2.46h2.26l.35 2.46a1 1 0 0 0 .75.83 8.664 8.664 0 0 1 2.35.98 1.017 1.017 0 0 0 1.11-.06l1.99-1.5 1.61 1.61-1.5 1.99a1.017 1.017 0 0 0 -.06 1.11 8.664 8.664 0 0 1 .98 2.35 1 1 0 0 0 .83.75l2.46.35z"/><path d="m16 26a6 6 0 1 0 6 6 6.006 6.006 0 0 0 -6-6zm0 10a4 4 0 1 1 4-4 4 4 0 0 1 -4 4z"/><path d="m35 13v18h-3v2h3v21a1 1 0 0 0 1 1h6v-2h-5v-20h5v-2h-5v-17h5v-2h-6a1 1 0 0 0 -1 1z"/></g></svg>