<svg id="Capa_1" enable-background="new 0 0 512 512" height="512" viewBox="0 0 512 512" width="512" xmlns="http://www.w3.org/2000/svg"><g><circle cx="438.311" cy="106.692" fill="#fbb043" r="73.689"/><path d="m512 106.692c0-40.632-33.057-73.689-73.689-73.689v147.379c40.632 0 73.689-33.057 73.689-73.69z" fill="#f46844"/><circle cx="73.689" cy="106.692" fill="#fbb043" r="73.689"/><path d="m147.379 106.692c0-40.632-33.057-73.689-73.689-73.689v147.379c40.632 0 73.689-33.057 73.689-73.69z" fill="#f46844"/><path d="m262.285 216.713c-4.148-4.148-10.335-5.497-15.834-3.453l-236.677 88c-5.845 2.173-9.736 7.736-9.772 13.972-.037 6.236 3.789 11.844 9.607 14.085l101.12 38.952 38.952 101.12c2.231 5.792 7.796 9.608 13.997 9.608h.088c6.236-.036 11.798-3.927 13.972-9.772l88-236.677c2.045-5.5.696-11.686-3.453-15.835z" fill="#d5e7f6"/><path d="m149.681 469.389c2.231 5.792 7.796 9.608 13.997 9.608h.088c6.236-.036 11.798-3.927 13.972-9.772l88-236.677c2.045-5.499.696-11.686-3.453-15.834l-151.556 151.555z" fill="#bdd0e0"/><path d="m73.689 121.692c7.846 0 15.363-6.899 15-15-.364-8.127-6.591-15-15-15-7.846 0-15.363 6.899-15 15 .364 8.127 6.591 15 15 15z" fill="#54726f"/><path d="m88.689 106.692c-.364-8.127-6.591-15-15-15v30c7.847 0 15.363-6.899 15-15z" fill="#293939"/><circle cx="256" cy="106.692" fill="#fbb043" r="73.689"/><path d="m329.689 106.692c0-40.632-33.057-73.689-73.689-73.689v147.379c40.632 0 73.689-33.057 73.689-73.69z" fill="#f46844"/><path d="m256 121.692c7.846 0 15.363-6.899 15-15-.364-8.127-6.591-15-15-15-7.846 0-15.363 6.899-15 15 .364 8.127 6.591 15 15 15z" fill="#54726f"/><path d="m271 106.692c-.364-8.127-6.591-15-15-15v30c7.846 0 15.363-6.899 15-15z" fill="#293939"/></g></svg>